<?xml version="1.0" encoding="utf-8"?>
<!-- Generator: Adobe Illustrator 19.0.0, SVG Export Plug-In . SVG Version: 6.00 Build 0)  -->
<svg version="1.1" id="Layer_1" xmlns="http://www.w3.org/2000/svg" xmlns:xlink="http://www.w3.org/1999/xlink" x="0px" y="0px"
	 viewBox="0 0 360 360" style="enable-background:new 0 0 360 360;" xml:space="preserve">
<style type="text/css">
	.st0{fill:#673AB7;}
	.st1{fill:#E91E63;}
</style>
<path id="XMLID_42_" class="st0" d="M208.8,317.5c0-43.7,0-87.1,0-130.4c0-1.2,0.4-1.7,1.4-2.3c22.2-12.8,44.4-25.6,66.7-38.4
	c15-8.7,30-17.3,44.9-26c0.6-0.3,1.2-0.6,2-1.1c0,0.8,0.1,1.3,0.1,1.9c0,42.8,0,85.5,0,128.3c0,1-0.2,1.7-1.2,2.4
	c-36.4,21-72.8,42-109.2,63C212,315.7,210.5,316.6,208.8,317.5z"/>
<path id="XMLID_41_" class="st0" d="M76.9,119.2c4.1,2.3,7.9,4.6,11.8,6.8c33.6,19.4,67.2,38.8,100.8,58.2c1.2,0.7,1.6,1.5,1.6,2.9
	c0,42.6-0.1,85.3-0.1,127.9c0,0.6,0,1.2,0,2c-0.8-0.4-1.3-0.6-1.8-0.9c-37-21.4-74-42.7-111-64.1c-1-0.6-1.6-1.2-1.6-2.5
	c0.1-43.1,0.1-86.1,0.1-129.2C76.8,120,76.8,119.7,76.9,119.2z"/>
<path id="XMLID_40_" class="st0" d="M315.1,105.8c-6.4,3.7-12.6,7.3-18.7,10.8c-31.3,18.1-62.6,36.1-93.8,54.2
	c-1.2,0.7-2.1,0.8-3.3,0.1c-37.2-21.5-74.4-43-111.6-64.5c-0.3-0.2-0.5-0.3-0.9-0.6c0.6-0.4,1-0.7,1.5-1
	c32-18.5,63.9-36.9,95.9-55.4c5-2.9,9.9-5.7,14.9-8.6c1.3-0.8,2.3-0.8,3.6,0c30.6,17.7,61.3,35.4,91.9,53.1
	C301.3,97.8,308.1,101.7,315.1,105.8z"/>
<path id="XMLID_39_" class="st1" d="M56.8,251.3c-6.9,0-13.8,0-20.7,0c0-44,0-88,0-132.1c6.9,0,13.7,0,20.7,0
	C56.8,163.2,56.8,207.2,56.8,251.3z"/>
<path id="XMLID_38_" class="st1" d="M180.2,3.4c3.5,6.1,7,12.1,10.5,18.2c-38.2,22-76.2,44-114.5,66.2c-3.5-6-7-12-10.6-18.2
	C103.8,47.5,141.9,25.5,180.2,3.4z"/>
<path id="XMLID_37_" class="st1" d="M190.6,338.4c-3.6,6.2-7,12.1-10.5,18.2c-38.2-22.1-76.3-44.1-114.6-66.2
	c3.6-6.1,7-12.1,10.5-18.2C114.3,294.3,152.4,316.3,190.6,338.4z"/>
</svg>
