<svg xmlns="http://www.w3.org/2000/svg" xmlns:xlink="http://www.w3.org/1999/xlink" viewBox="-222 277 200 200"><defs><style>.a{clip-path:url(#b);}.b{fill:#7a08d0;}.c{fill:#e91e63;}.d{fill:#fff;}</style><clipPath id="b"><rect x="-222" y="277" width="200" height="200"/></clipPath></defs><g id="a" class="a"><rect class="d" x="-222" y="277" width="200" height="200"/><g transform="translate(-187.187 297)"><path class="b" d="M208.8,209.085V150.013a1.038,1.038,0,0,1,.634-1.042q15.085-8.7,30.215-17.4c6.8-3.941,13.59-7.837,20.34-11.778a9.894,9.894,0,0,0,.906-.5c0,.362.045.589.045.861v58.12a1.142,1.142,0,0,1-.544,1.087l-49.468,28.539C210.25,208.269,209.57,208.677,208.8,209.085Z" transform="translate(-130.567 -66.797)"/><path class="b" d="M76.736,119.2c1.857,1.042,3.579,2.084,5.345,3.08l45.662,26.365a1.311,1.311,0,0,1,.725,1.314q0,28.947-.045,57.939v.906c-.362-.181-.589-.272-.815-.408q-25.142-14.541-50.283-29.037a1.194,1.194,0,0,1-.725-1.133q.068-29.287.045-58.528C76.691,119.562,76.691,119.426,76.736,119.2Z" transform="translate(-58.253 -66.742)"/><path class="b" d="M190.22,69.917c-2.9,1.676-5.708,3.307-8.471,4.892q-21.268,12.3-42.492,24.553a1.3,1.3,0,0,1-1.495.045L87.208,70.189c-.136-.091-.227-.136-.408-.272.272-.181.453-.317.68-.453q21.744-12.571,43.443-25.1c2.265-1.314,4.485-2.582,6.75-3.9a1.359,1.359,0,0,1,1.631,0Q160.1,52.5,180.934,64.526C183.969,66.293,187.049,68.06,190.22,69.917Z" transform="translate(-63.833 -23.53)"/><path class="c" d="M45.477,179.041H36.1V119.2h9.377Z" transform="translate(-36.1 -66.742)"/><path class="c" d="M117.514,3.4c1.585,2.763,3.171,5.481,4.757,8.245-17.3,9.966-34.519,19.932-51.869,29.989-1.586-2.718-3.171-5.436-4.8-8.245Q91.557,18.372,117.514,3.4Z" transform="translate(-52.236 -3.4)"/><path class="c" d="M122.17,302.189c-1.631,2.809-3.171,5.481-4.757,8.245Q91.457,295.416,65.5,280.445c1.631-2.763,3.171-5.481,4.757-8.245Q96.281,287.217,122.17,302.189Z" transform="translate(-52.182 -150.433)"/></g></g></svg>