<svg xmlns="http://www.w3.org/2000/svg" xmlns:xlink="http://www.w3.org/1999/xlink" viewBox="443 134 700 700"><defs><style>.a{clip-path:url(#d);}.b{fill:#3f51b5;}.c{fill:#8bc34a;}.d{fill:#1e88e5;}.e{opacity:0.2;}.f{fill:#fff;}.g{filter:url(#a);}</style><filter id="a" x="491" y="188" width="604" height="604" filterUnits="userSpaceOnUse"><feOffset dy="6" input="SourceAlpha"/><feGaussianBlur stdDeviation="5" result="b"/><feFlood flood-opacity="0.302"/><feComposite operator="in" in2="b"/><feComposite in="SourceGraphic"/></filter><clipPath id="d"><rect x="443" y="134" width="700" height="700"/></clipPath></defs><g id="c" class="a"><rect class="f" x="443" y="134" width="700" height="700"/><g transform="translate(351 75)"><g class="g" transform="matrix(1, 0, 0, 1, -351, -75)"><circle class="b" cx="287" cy="287" r="287" transform="translate(506 197)"/></g><g transform="translate(151.717 118.591)"><path class="c" d="M249.08,347.719a41.4,41.4,0,0,0-14.589,56.664c9.187,15.556.309,31.85-9.725,37.775,19.477,8.031,43.655,6.252,61.526-4.3a55.149,55.149,0,0,0,19.45-75.55,41.4,41.4,0,0,0-56.662-14.589Z"/><path class="d" d="M346.124,140.337l-25.214-6.493a13.826,13.826,0,0,0-16.8,9.923L260.559,312.91,312.5,326.285l43.546-169.143a13.694,13.694,0,0,0-9.922-16.8Z"/><g class="e"><path d="M90.7,289.314,199.243,327.59v53.32L35.283,311.4V266.462l163.96-69.507v53.32Z"/></g><g class="e"><path d="M489.986,288.743l-110.64-38.657V197.147L545.21,266.654V311.4L379.346,381.1V327.97Z"/></g></g></g></g></svg>