<svg version="1.1" id="Layer_1" xmlns="http://www.w3.org/2000/svg" xmlns:xlink="http://www.w3.org/1999/xlink" x="0px" y="0px"
	 width="580px" height="580px" viewBox="0 0 580 580" enable-background="new 0 0 580 580" xml:space="preserve">
<path fill="#8BC34A" d="M249.08,347.719c-19.654,11.606-26.198,37.006-14.589,56.664c9.187,15.556,0.309,31.85-9.725,37.775
	c19.477,8.031,43.655,6.252,61.526-4.301c26.244-15.497,34.947-49.307,19.45-75.55C294.135,342.65,268.734,336.112,249.08,347.719z"
	/>
<path fill="#1E88E5" d="M346.124,140.337l-25.214-6.493c-7.367-1.893-14.91,2.563-16.805,9.923L260.559,312.91l51.941,13.375l43.546-169.143
	C357.968,149.681,353.551,142.201,346.124,140.337z"/>
<g>
	<path fill="rgba(0,0,0,0.25)" d="M90.698,289.314l108.545,38.276v53.32l-163.96-69.507v-44.941l163.96-69.507v53.32L90.698,289.314z"/>
</g>
<g>
	<path fill="rgba(0,0,0,0.25)" d="M489.986,288.743l-110.64-38.657v-52.939l165.864,69.507v44.751l-165.864,69.697v-53.13L489.986,288.743z"/>
</g>
</svg>
