<svg xmlns="http://www.w3.org/2000/svg" xmlns:xlink="http://www.w3.org/1999/xlink" viewBox="78 277 200 200"><defs><style>.a{clip-path:url(#h);}.b{fill:#375b6b;}.c{fill:#23f67f;}.d{fill:#147ef8;}.e{fill:rgba(0,0,0,0.2);}.f{fill:rgba(0,0,0,0.19);}.g{fill:#fff;}.h{filter:url(#e);}.i{filter:url(#c);}.j{filter:url(#a);}</style><filter id="a" x="93.5" y="294.5" width="169" height="169" filterUnits="userSpaceOnUse"><feOffset dy="2" input="SourceAlpha"/><feGaussianBlur stdDeviation="1.5" result="b"/><feFlood flood-opacity="0.4"/><feComposite operator="in" in2="b"/><feComposite in="SourceGraphic"/></filter><filter id="c" x="154.752" y="389.299" width="34.383" height="39.117" filterUnits="userSpaceOnUse"><feOffset dy="2" input="SourceAlpha"/><feGaussianBlur stdDeviation="1.5" result="d"/><feFlood flood-opacity="0.302"/><feComposite operator="in" in2="d"/><feComposite in="SourceGraphic"/></filter><filter id="e" x="165" y="329.584" width="36.468" height="64.224" filterUnits="userSpaceOnUse"><feOffset dy="2" input="SourceAlpha"/><feGaussianBlur stdDeviation="1.5" result="f"/><feFlood flood-opacity="0.302"/><feComposite operator="in" in2="f"/><feComposite in="SourceGraphic"/></filter><clipPath id="h"><rect x="78" y="277" width="200" height="200"/></clipPath></defs><g id="g" class="a"><rect class="g" x="78" y="277" width="200" height="200"/><g transform="translate(77 277)"><g class="j" transform="matrix(1, 0, 0, 1, -77, -277)"><path class="b" d="M80,0A80,80,0,1,1,0,80,80,80,0,0,1,80,0Z" transform="translate(98 297)"/></g><g class="i" transform="matrix(1, 0, 0, 1, -77, -277)"><path class="c" d="M231.727,343.619a11.854,11.854,0,0,0-4.177,16.224,8,8,0,0,1-2.784,10.816,20.466,20.466,0,0,0,17.616-1.231,15.79,15.79,0,0,0,5.569-21.631A11.854,11.854,0,0,0,231.727,343.619Z" transform="translate(-65.51 49.83)"/></g><g class="h" transform="matrix(1, 0, 0, 1, -77, -277)"><path class="d" d="M285.058,135.392l-7.219-1.859a3.959,3.959,0,0,0-4.812,2.841L260.559,184.8l14.872,3.829L287.9,140.2A3.921,3.921,0,0,0,285.058,135.392Z" transform="translate(-91.06 198.68)"/></g><g transform="translate(28 73.278)"><path class="e" d="M51.149,223.4l31.078,10.959v15.266l-46.944-19.9V216.856l46.944-19.9v15.266Z" transform="translate(-35.283 -196.955)"/></g><g transform="translate(126.511 73.333)"><path class="f" d="M411.024,223.372,379.346,212.3V197.147l47.489,19.9v12.813l-47.489,19.955V234.6Z" transform="translate(-379.346 -197.147)"/></g></g></g></svg>