<svg xmlns="http://www.w3.org/2000/svg" xmlns:xlink="http://www.w3.org/1999/xlink" viewBox="78 -23 200 200"><defs><style>.a{clip-path:url(#b);}.b,.e{fill:none;}.b{stroke:#e93939;stroke-width:8px;}.c{fill:#fff;}.d{stroke:none;}</style><clipPath id="b"><rect x="78" y="-23" width="200" height="200"/></clipPath></defs><g id="a" class="a"><rect class="c" x="78" y="-23" width="200" height="200"/><g transform="translate(78 -23)"><g class="b" transform="translate(27 20)"><path class="d" d="M0,0H77.365a61.013,61.013,0,0,1,61.013,61.013v0a61.013,61.013,0,0,1-61.013,61.013H0a0,0,0,0,1,0,0V0A0,0,0,0,1,0,0Z"/><path class="e" d="M4.023,4H77.365a57.013,57.013,0,0,1,57.013,57.013v0a57.013,57.013,0,0,1-57.013,57.013H4.023A.023.023,0,0,1,4,118V4.023A.023.023,0,0,1,4.023,4Z"/></g><g class="b" transform="translate(27 39.036)"><path class="d" d="M0,0H75.717a41.916,41.916,0,0,1,41.916,41.916v0A41.916,41.916,0,0,1,75.717,83.832H0a0,0,0,0,1,0,0V0A0,0,0,0,1,0,0Z"/><path class="e" d="M4.015,4h71.7a37.916,37.916,0,0,1,37.916,37.916v0A37.916,37.916,0,0,1,75.717,79.832H4.015A.015.015,0,0,1,4,79.817V4.015A.015.015,0,0,1,4.015,4Z"/></g><g class="b" transform="translate(27 58.072)"><path class="d" d="M0,0H77.548a22.758,22.758,0,0,1,22.758,22.758v0A22.758,22.758,0,0,1,77.548,45.516H0a0,0,0,0,1,0,0V0A0,0,0,0,1,0,0Z"/><path class="e" d="M4.008,4h73.54A18.758,18.758,0,0,1,96.306,22.758v0A18.758,18.758,0,0,1,77.548,41.516H4.008A.008.008,0,0,1,4,41.508V4.008A.008.008,0,0,1,4.008,4Z"/></g><line class="b" x2="117.633" transform="translate(27.122 157.28)"/><line class="b" x2="138.378" transform="translate(27.122 176.072)"/><line class="b" x2="75.656" transform="translate(30.539 80.647)"/><rect class="c" width="51" height="194" transform="translate(-15 6)"/></g></g></svg>