<svg xmlns="http://www.w3.org/2000/svg" xmlns:xlink="http://www.w3.org/1999/xlink" viewBox="310 1100 700 700"><defs><style>.a{clip-path:url(#f);}.b{fill:#585858;}.c{fill:#fcec09;}.d{filter:url(#c);}.e{filter:url(#a);}</style><filter id="a" x="366" y="1120" width="588" height="668" filterUnits="userSpaceOnUse"><feOffset dy="4" input="SourceAlpha"/><feGaussianBlur stdDeviation="3" result="b"/><feFlood flood-opacity="0.302"/><feComposite operator="in" in2="b"/><feComposite in="SourceGraphic"/></filter><filter id="c" x="360" y="1115" width="600" height="600" filterUnits="userSpaceOnUse"><feOffset dy="5" input="SourceAlpha"/><feGaussianBlur stdDeviation="5" result="d"/><feFlood flood-opacity="0.302"/><feComposite operator="in" in2="d"/><feComposite in="SourceGraphic"/></filter><clipPath id="f"><rect x="310" y="1100" width="700" height="700"/></clipPath></defs><g id="e" class="a"><g class="e" transform="matrix(1, 0, 0, 1, 0, 0)"><path class="b" d="M0,0H0L570,650H0Z" transform="translate(375 1125)"/></g><g class="d" transform="matrix(1, 0, 0, 1, 0, 0)"><path class="c" d="M.95,0H285A285,285,0,0,1,570,285v0A285,285,0,0,1,285,570h0A285,285,0,0,1,0,285V.95A.95.95,0,0,1,.95,0Z" transform="translate(375 1125)"/></g></g></svg>