<svg xmlns="http://www.w3.org/2000/svg" xmlns:xlink="http://www.w3.org/1999/xlink" viewBox="-195 199 726 705"><defs><style>.a{clip-path:url(#b);}.b,.e{fill:none;}.b{stroke:#e93939;stroke-width:30px;}.c{fill:#fff;}.d{stroke:none;}</style><clipPath id="b"><rect x="-195" y="199" width="726" height="705"/></clipPath></defs><g id="a" class="a"><rect class="c" x="-195" y="199" width="726" height="705"/><g class="b" transform="translate(-129 223)"><path class="d" d="M0,0H317A250,250,0,0,1,567,250v0A250,250,0,0,1,317,500H0a0,0,0,0,1,0,0V0A0,0,0,0,1,0,0Z"/><path class="e" d="M15.353,15H317A235,235,0,0,1,552,250v0A235,235,0,0,1,317,485H15.353a.353.353,0,0,1-.353-.353V15.353A.353.353,0,0,1,15.353,15Z"/></g><g class="b" transform="translate(-129 301)"><path class="d" d="M0,0H310.25A171.75,171.75,0,0,1,482,171.75v0A171.75,171.75,0,0,1,310.25,343.5H0a0,0,0,0,1,0,0V0A0,0,0,0,1,0,0Z"/><path class="e" d="M15.236,15H310.25A156.75,156.75,0,0,1,467,171.75v0A156.75,156.75,0,0,1,310.25,328.5H15.236a.236.236,0,0,1-.236-.236V15.236A.236.236,0,0,1,15.236,15Z"/></g><line class="b" x2="482" transform="translate(-128.5 785.5)"/><line class="b" x2="310" transform="translate(-114.5 471.5)"/><line class="b" x2="567" transform="translate(-128.5 862.5)"/><g class="b" transform="translate(-129 379)"><path class="d" d="M0,0H317.75A93.25,93.25,0,0,1,411,93.25v0a93.25,93.25,0,0,1-93.25,93.25H0a0,0,0,0,1,0,0V0A0,0,0,0,1,0,0Z"/><path class="e" d="M15.118,15H317.75A78.25,78.25,0,0,1,396,93.25v0a78.25,78.25,0,0,1-78.25,78.25H15.118a.118.118,0,0,1-.118-.118V15.118A.118.118,0,0,1,15.118,15Z"/></g><rect class="c" width="242" height="919" transform="translate(-339 21)"/></g></svg>