<svg xmlns="http://www.w3.org/2000/svg" xmlns:xlink="http://www.w3.org/1999/xlink" viewBox="378 -23 200 200"><defs><style>.a{clip-path:url(#f);}.b{fill:#f12d5c;}.c{fill:#099bfc;}.d{fill:#fff;}.e{filter:url(#c);}.f{filter:url(#a);}</style><filter id="a" x="403.539" y="-5.5" width="149.308" height="169" filterUnits="userSpaceOnUse"><feOffset dy="2" input="SourceAlpha"/><feGaussianBlur stdDeviation="1.5" result="b"/><feFlood flood-opacity="0.302"/><feComposite operator="in" in2="b"/><feComposite in="SourceGraphic"/></filter><filter id="c" x="403.539" y="-5.5" width="149.308" height="149.308" filterUnits="userSpaceOnUse"><feOffset dy="2" input="SourceAlpha"/><feGaussianBlur stdDeviation="1.5" result="d"/><feFlood flood-opacity="0.302"/><feComposite operator="in" in2="d"/><feComposite in="SourceGraphic"/></filter><clipPath id="f"><rect x="378" y="-23" width="200" height="200"/></clipPath></defs><g id="e" class="a"><rect class="d" x="378" y="-23" width="200" height="200"/><g transform="translate(343.039 -28)"><g class="f" transform="matrix(1, 0, 0, 1, -343.04, 28)"><path class="b" d="M0,0H0L140.308,160H0Z" transform="translate(408.04 -3)"/></g><g class="e" transform="matrix(1, 0, 0, 1, -343.04, 28)"><path class="c" d="M.234,0h69.92a70.154,70.154,0,0,1,70.154,70.154v0a70.154,70.154,0,0,1-70.154,70.154h0A70.154,70.154,0,0,1,0,70.154V.234A.234.234,0,0,1,.234,0Z" transform="translate(408.04 -3)"/></g></g></g></svg>