<svg xmlns="http://www.w3.org/2000/svg" xmlns:xlink="http://www.w3.org/1999/xlink" viewBox="984 -672 680 680"><defs><style>.a{clip-path:url(#g);}.b{fill:#fff;}.c{fill:#db4c3c;}.d{fill:#fbbf35;}.e{fill:#16a15e;}.f{fill:url(#c);}.g{fill:#2196f3;stroke:#fff;stroke-width:27px;}.h{fill:#239957;}.i{opacity:0.4;}.j{stroke:none;}.k{fill:none;}.l{filter:url(#d);}.m{filter:url(#a);}</style><filter id="a" x="1088" y="-473" width="475" height="476" filterUnits="userSpaceOnUse"><feOffset dy="4" input="SourceAlpha"/><feGaussianBlur stdDeviation="5" result="b"/><feFlood flood-opacity="0.302"/><feComposite operator="in" in2="b"/><feComposite in="SourceGraphic"/></filter><linearGradient id="c" x1="0.5" x2="0.5" y2="1" gradientUnits="objectBoundingBox"><stop offset="0" stop-opacity="0.102"/><stop offset="1" stop-color="gray" stop-opacity="0"/></linearGradient><filter id="d" x="1122.407" y="-621.345" width="407" height="244" filterUnits="userSpaceOnUse"><feOffset dy="4" input="SourceAlpha"/><feGaussianBlur stdDeviation="5" result="e"/><feFlood flood-opacity="0.302"/><feComposite operator="in" in2="e"/><feComposite in="SourceGraphic"/></filter><clipPath id="g"><rect x="984" y="-672" width="680" height="680"/></clipPath></defs><g id="f" class="a"><rect class="b" x="984" y="-672" width="680" height="680"/><g transform="translate(659.407 -107.345)"><g class="m" transform="matrix(1, 0, 0, 1, -659.41, 107.35)"><ellipse class="b" cx="222.5" cy="223" rx="222.5" ry="223" transform="translate(1103 -462)"/></g><path class="c" d="M-3.449,198.426c45.759-25.905,102.3-57.093,155.333-86.5,65.589,85.218,36.721,200.8,14.165,237.381C121.951,427.273,41.035,459.286-3.475,463.466-3.96,330.838-3.7,299.037-3.449,198.426Z" transform="translate(423.344 -159.485) rotate(-91)"/><path class="d" d="M2.657,199.814c84.531-31.774,105.373-41.758,161.19-62.074,53.095,103.481,18.669,180.768-3.54,221.254C123.044,426.923,41.276,472.359-37.59,468.163-16.105,344.454-14.614,330.715,2.657,199.814Z" transform="translate(779.944 -349.572) rotate(20)"/><path class="e" d="M-9.371,212.64C77.2,145.374,85.084,138.557,131.134,104.27c123.913,136.525,72.1,322.57-104.924,380.012C26.211,484.283,6.072,326.745-9.371,212.64Z" transform="matrix(-0.921, 0.391, -0.391, -0.921, 745.952, 122.243)"/><rect class="f" width="204" height="236" transform="translate(591.551 -59.012) rotate(-45)"/><g class="g" transform="translate(564 -231)"><ellipse class="j" cx="102" cy="101.5" rx="102" ry="101.5"/><ellipse class="k" cx="102" cy="101.5" rx="88.5" ry="88"/></g><g transform="translate(-2057 -1033)"><g class="l" transform="matrix(1, 0, 0, 1, 1397.59, 1140.35)"><path class="h" d="M188.5,0h0A188.5,188.5,0,0,1,377,188.5v23.615A1.885,1.885,0,0,1,375.115,214H1.885A1.885,1.885,0,0,1,0,212.115V188.5A188.5,188.5,0,0,1,188.5,0Z" transform="translate(1137.41 -610.35)"/></g><ellipse class="i" cx="28.5" cy="28" rx="28.5" ry="28" transform="translate(2616 638)"/><ellipse class="i" cx="28.5" cy="28" rx="28.5" ry="28" transform="translate(2777 638)"/><rect class="h" width="33" height="95" transform="translate(2869.075 487.345) rotate(43)"/><rect class="h" width="33" height="95" transform="translate(2557.285 509.851) rotate(-43)"/></g></g></g></svg>