<svg xmlns="http://www.w3.org/2000/svg" xmlns:xlink="http://www.w3.org/1999/xlink" viewBox="678 -23 200 200"><defs><style>.a{clip-path:url(#g);}.b{fill:#fff;}.c{fill:#db4c3c;}.d{fill:#fbbf35;}.e{fill:#16a15e;}.f{fill:url(#c);}.g{fill:#2196f3;stroke:#fff;stroke-width:7px;}.h{fill:#239957;}.i{opacity:0.4;}.j{stroke:none;}.k{fill:none;}.l{filter:url(#d);}.m{filter:url(#a);}</style><filter id="a" x="718.441" y="42.016" width="119.705" height="119.954" filterUnits="userSpaceOnUse"><feOffset dy="2" input="SourceAlpha"/><feGaussianBlur stdDeviation="1.5" result="b"/><feFlood flood-opacity="0.302"/><feComposite operator="in" in2="b"/><feComposite in="SourceGraphic"/></filter><linearGradient id="c" x1="0.5" x2="0.5" y2="1" gradientUnits="objectBoundingBox"><stop offset="0" stop-opacity="0.102"/><stop offset="1" stop-color="gray" stop-opacity="0"/></linearGradient><filter id="d" x="727" y="5.111" width="102.788" height="62.238" filterUnits="userSpaceOnUse"><feOffset dy="2" input="SourceAlpha"/><feGaussianBlur stdDeviation="1.5" result="e"/><feFlood flood-opacity="0.302"/><feComposite operator="in" in2="e"/><feComposite in="SourceGraphic"/></filter><clipPath id="g"><rect x="678" y="-23" width="200" height="200"/></clipPath></defs><g id="f" class="a"><rect class="b" x="678" y="-23" width="200" height="200"/><g transform="translate(332.016 542.655)"><g class="m" transform="matrix(1, 0, 0, 1, -332.02, -542.65)"><ellipse class="b" cx="55.352" cy="55.477" rx="55.352" ry="55.477" transform="translate(722.94 44.52)"/></g><g transform="translate(373.483 -499.416)"><path class="c" d="M.075,21.52C11.458,15.075,25.524,7.316,38.718,0c16.317,21.2,9.135,49.955,3.524,59.055-10.971,19.4-31.1,27.361-42.173,28.4C-.052,54.46.011,46.549.075,21.52Z" transform="translate(40.26 50.277) rotate(-91)"/><path class="d" d="M10.012,15.442C31.042,7.538,36.226,5.054,50.113,0c13.209,25.744,4.644,44.971-.881,55.043C39.962,71.941,19.62,83.245,0,82.2,5.345,51.425,5.716,48.007,10.012,15.442Z" transform="translate(80.61 31.543) rotate(20)"/><path class="e" d="M0,26.96C21.537,10.226,23.5,8.53,34.954,0c30.827,33.964,17.937,80.247-26.1,94.538C8.852,94.538,3.842,55.346,0,26.96Z" transform="matrix(-0.921, 0.391, -0.391, -0.921, 84.671, 95.129)"/></g><rect class="f" width="50.75" height="58.711" transform="translate(427.733 -424.59) rotate(-45)"/><g class="g" transform="translate(420.879 -467.376)"><ellipse class="j" cx="25.375" cy="25.251" rx="25.375" ry="25.251"/><ellipse class="k" cx="25.375" cy="25.251" rx="21.875" ry="21.751"/></g><g transform="translate(399.484 -545.655)"><g class="l" transform="matrix(1, 0, 0, 1, -731.5, 3)"><path class="h" d="M46.894,0A46.894,46.894,0,0,1,93.788,46.894v5.875a.469.469,0,0,1-.469.469H.469A.469.469,0,0,1,0,52.769V46.894A46.894,46.894,0,0,1,46.894,0Z" transform="translate(731.5 7.61)"/></g><g transform="translate(20.151 37.479)"><ellipse class="i" cx="7.09" cy="6.966" rx="7.09" ry="6.966"/><ellipse class="i" cx="7.09" cy="6.966" rx="7.09" ry="6.966" transform="translate(40.053)"/></g><g transform="translate(5.544 0)"><rect class="h" width="8.21" height="23.634" transform="translate(77.566 0) rotate(43)"/><rect class="h" width="8.21" height="23.634" transform="translate(0 5.599) rotate(-43)"/></g></g></g></g></svg>