<svg xmlns="http://www.w3.org/2000/svg" xmlns:xlink="http://www.w3.org/1999/xlink" viewBox="-822 -23 500 500"><defs><style>.a{clip-path:url(#n);}.b{fill:#f15695;}.c{fill:#c5a6a6;}.d{fill:#393939;}.e{fill:#ff0;}.f{fill:#39ff9e;}.g{fill:rgba(0,0,0,0.1);}.h{fill:#393b3b;}.i{fill:#2dff98;}.j{fill:#3c3c3c;}.k{fill:#2086eb;}.l{fill:#383838;}.m{fill:#1d78d3;}.n{fill:rgba(0,0,0,0.02);}.o{fill:#d94d86;}.p,.r,.v,.x{fill:none;}.p{stroke:rgba(0,0,0,0.2);stroke-width:0.6px;}.q{fill:rgba(0,0,0,0.2);}.r{stroke:#39ff9e;stroke-width:0.4px;}.s{fill:#20958c;}.t{fill:#00c8ff;}.u{fill:#1d867e;}.v{stroke:rgba(0,0,0,0.1);stroke-width:2px;}.w{stroke:none;}.y{fill:#fff;}.z{filter:url(#k);}.aa{filter:url(#i);}.ab{filter:url(#g);}.ac{filter:url(#e);}.ad{filter:url(#c);}.ae{filter:url(#a);}</style><filter id="a" x="-712.392" y="36.387" width="24.367" height="24.367" filterUnits="userSpaceOnUse"><feOffset dy="1" input="SourceAlpha"/><feGaussianBlur stdDeviation="1" result="b"/><feFlood flood-opacity="0.302"/><feComposite operator="in" in2="b"/><feComposite in="SourceGraphic"/></filter><filter id="c" x="-689.126" y="36.387" width="24.367" height="24.367" filterUnits="userSpaceOnUse"><feOffset dy="1" input="SourceAlpha"/><feGaussianBlur stdDeviation="1" result="d"/><feFlood flood-opacity="0.302"/><feComposite operator="in" in2="d"/><feComposite in="SourceGraphic"/></filter><filter id="e" x="-708.064" y="197.953" width="27.033" height="21.6" filterUnits="userSpaceOnUse"><feOffset dy="1" input="SourceAlpha"/><feGaussianBlur stdDeviation="1" result="f"/><feFlood flood-opacity="0.302"/><feComposite operator="in" in2="f"/><feComposite in="SourceGraphic"/></filter><filter id="g" x="-466.129" y="36.387" width="24.367" height="24.367" filterUnits="userSpaceOnUse"><feOffset dy="1" input="SourceAlpha"/><feGaussianBlur stdDeviation="1" result="h"/><feFlood flood-opacity="0.302"/><feComposite operator="in" in2="h"/><feComposite in="SourceGraphic"/></filter><filter id="i" x="-442.864" y="36.387" width="24.367" height="24.367" filterUnits="userSpaceOnUse"><feOffset dy="1" input="SourceAlpha"/><feGaussianBlur stdDeviation="1" result="j"/><feFlood flood-opacity="0.302"/><feComposite operator="in" in2="j"/><feComposite in="SourceGraphic"/></filter><filter id="k" x="-461.802" y="197.953" width="27.033" height="21.6" filterUnits="userSpaceOnUse"><feOffset dy="1" input="SourceAlpha"/><feGaussianBlur stdDeviation="1" result="l"/><feFlood flood-opacity="0.302"/><feComposite operator="in" in2="l"/><feComposite in="SourceGraphic"/></filter><clipPath id="n"><rect x="-822" y="-23" width="500" height="500"/></clipPath></defs><g id="m" class="a"><rect class="y" x="-822" y="-23" width="500" height="500"/><g transform="translate(-783.503 -0.3)"><path class="b" d="M-1.762.5H60.461c1.577,97.015,2.454,138.994,2.454,138.994H37.149s8.589-77.91-11.042-76.07-17.79,84.4-17.79,84.4H-17.8Z" transform="translate(59.606 213.161)"/><path class="c" d="M25.652,13.85a70.48,70.48,0,0,0,9.9,6.485c-1.139,7.627-7.887,14.022-17.528,14.022-8.77,0-16.2-5.974-17.528-14.022,1.066-.8,10.128-5.451,11.919-6.485C17.071,11.164,22.941,11.826,25.652,13.85Z" transform="translate(76.624 60.993)"/><path class="c" d="M470.34,646.822l-1.84,17.061h22.7l2.1-20.683Z" transform="translate(-429.937 -259.521)"/><g transform="translate(58.805 0)"><path class="d" d="M14.07,0h28.14a14.2,14.2,0,0,1,14.07,14.328l-.059,16.059H.059L0,14.328A14.2,14.2,0,0,1,14.07,0Z" transform="translate(7.836 12.412)"/><ellipse class="c" cx="6.429" cy="6.429" rx="6.429" ry="6.429" transform="translate(0 42.18)"/><ellipse class="c" cx="6.429" cy="6.429" rx="6.429" ry="6.429" transform="translate(59.388 42.18)"/><path class="c" d="M28.547,14.7H51.382V29.745h5.265c-.3,3.3,0,1.871,0,5.658,0,16.31-12.581,29.531-28.1,29.531S.446,51.713.446,35.4c0-1.51-.177-2.8,0-5.658,1.557-.112,3.017-.062,6.153,0-.143-4.165,0-9.573,0-15.045Z" transform="translate(7.469 12.45)"/><g transform="translate(15.306 38.687)"><g class="ae" transform="matrix(1, 0, 0, 1, 709.39, -38.39)"><path class="e" d="M9.184,0A9.184,9.184,0,1,1,0,9.184,9.184,9.184,0,0,1,9.184,0Z" transform="translate(-709.39 38.39)"/></g><g class="ad" transform="matrix(1, 0, 0, 1, 709.39, -38.39)"><ellipse class="e" cx="9.184" cy="9.184" rx="9.184" ry="9.184" transform="translate(-686.13 38.39)"/></g></g><path class="d" d="M48.37-12.3c0,4.732-.088,8.589,0,12.707.295,13.848-17,14.46-17,14.46-21.386,0-24.626-1.052-24.626,4.207V29.941H.7v-15.6C-.619-3.361,36.627-9.583,48.37-12.3Z" transform="translate(7.282 12.3)"/></g><path class="f" d="M464.167,616.9,461.1,645.119l39.612-5.171,2.717-23.049Z" transform="translate(-429.022 -256.533)"/><path class="f" d="M531.8,607.5l1.577,26.379h31.287l3.418-26.379Z" transform="translate(-440.391 -255.371)"/><path class="g" d="M767.335,534.766,764.793,397.7,761.2,534.766Z" transform="translate(-644.902 -182.724)"/><rect class="h" width="66.605" height="13.866" transform="translate(55.653 201.119)"/><path class="g" d="M698.5,576.069h6.573c-.526-16.388.613-82.117,17.966-83.869C700.954,493.252,698.5,576.069,698.5,576.069Z" transform="translate(-637.151 -215.703)"/><path class="c" d="M536.44,637.6l-1.84,22.961h22.435l1.577-22.961Z" transform="translate(-438.985 -259.092)"/><path class="i" d="M462.2,665.991l1.84,8.852H492.26V663.8Z" transform="translate(-428.282 -262.331)"/><path class="j" d="M460.988,666.59c-41.54-17-40.489,24.889-40.489,24.889h65.991l-4.645-42.68h-22.7Z" transform="translate(-420.497 -236.814)"/><path class="f" d="M462.2,665.991l1.84,8.852H492.26V663.8Z" transform="translate(-428.282 -262.331)"/><path class="j" d="M446.3,666.81c42.026-17.211,40.962,25.2,40.962,25.2H420.5l4.7-43.205H448.16Z" transform="translate(-329.775 -236.99)"/><path class="f" d="M528.3,658.8v12.97l34.091-1.49,2.454-11.481Z" transform="translate(-439.082 -258.207)"/><path class="g" d="M41.446,28.915S40.834,29,36.626,29C35.312,1.743,21.84.42,0,4.57,24.434-6.638,40.035,3.345,41.433,28.214" transform="matrix(1, 0.017, -0.017, 1, 116.553, 425.382)"/><path class="g" d="M690.859,652l4.557,42.241L629.6,694.5l58.98-6.31Z" transform="translate(-629.51 -239.839)"/><path class="g" d="M709.873,589l-2.629,22.961L671.4,616.606l32.952-7.186Z" transform="translate(-635.554 -228.545)"/><path class="g" d="M771.823,578.6l-3.33,26.291H741.5l24.276-2.98Z" transform="translate(-644.219 -226.383)"/><path class="k" d="M-8.314.5s3.155,13.672,17.79,13.847S26.741.5,26.741.5L56.012,14.347,91.418,97.866l-58.1,59.769-8.5-11.568,44.432-50.3L45.583,43.618,32.35,84.9l.964,35.406H-26.368l-2.1-81.679-17.265,43.03L-3.757,66.491l3.768,14.2L-70.8,113.465l27.431-95.788Z" transform="translate(85.438 80.828)"/><path class="g" d="M653.228,385.564l-1.928,7.186L721.41,360.5Z" transform="translate(-636.574 -198.545)"/><path class="g" d="M757.3,396.383h5.872l-.964-35.406L775.441,319.7l-16.3,40.752Z" transform="translate(-644.42 -195.254)"/><path class="g" d="M823.732,377.7l1.84,4.294L771.5,437.557Z" transform="translate(-648.804 -203.301)"/><rect class="l" width="19.144" height="28.716" rx="2" transform="translate(87.202 112.039)"/><path class="m" d="M48.167,0l2.05,6.391L0,19.017Z" transform="matrix(0.999, 0.035, -0.035, 0.999, 59.155, 155.388)"/><path class="c" d="M-.3.5H19.853l-.789,17.966L-1.793,26-6,9.614Z" transform="translate(87.067 136.916)"/><g transform="translate(78.438 200.253)"><g class="ac" transform="matrix(1, 0, 0, 1, 705.06, -199.95)"><rect class="e" width="21.033" height="15.6" transform="translate(-705.06 199.95)"/></g><path class="n" d="M741.033,408.047v15.6H720Z" transform="translate(-720 -408.047)"/></g><path class="g" d="M750.446,335.5l-.789,17.966L728.8,361l18.053-9.64Z" transform="translate(-643.526 -198.084)"/><path class="o" d="M753.672,436.623l10.589,14.028s-7.259,16.557-12.429,2.974S753.672,436.623,753.672,436.623Z" transform="translate(-640.354 -214.637)"/><g class="p" transform="translate(93.903 114.911)"><ellipse class="w" cx="2.872" cy="2.872" rx="2.872" ry="2.872"/><ellipse class="x" cx="2.872" cy="2.872" rx="2.572" ry="2.572"/></g><ellipse class="q" cx="1.914" cy="1.914" rx="1.914" ry="1.914" transform="translate(94.86 115.868)"/><g class="r" transform="translate(95.09 123.526)"><ellipse class="w" cx="1.914" cy="1.914" rx="1.914" ry="1.914"/><ellipse class="x" cx="1.914" cy="1.914" rx="1.714" ry="1.714"/></g><ellipse class="q" cx="0.957" cy="0.957" rx="0.957" ry="0.957" transform="translate(100.603 116.826)"/><path class="f" d="M0-.3A3.259,3.259,0,0,1,.574,1.232,3.848,3.848,0,0,1,0,2.859Z" transform="translate(106.346 119.71)"/><path class="f" d="M0,0A12.306,12.306,0,0,1,.574,2.967,9.024,9.024,0,0,1,0,5.648Z" transform="translate(106.346 123.526)"/><path class="g" d="M1352.426,244.892c-.259,1.293-.455,2.015-.526,2.279a6.418,6.418,0,0,0,8.851-5.171C1360.05,243.753,1356.815,246.406,1352.426,244.892Z" transform="translate(-1229.73 -192.66)"/><path class="g" d="M829.9,213.88c13.759-16.125,22.961-27.08,22.961-27.08s-.351,2.1,0,9.9c.051,1.123,0,2.191,0,3.593a12.175,12.175,0,0,1-6.4,10.517,24.463,24.463,0,0,1-10.516,3.067Z" transform="translate(-738.403 -186.712)"/><path class="g" d="M861.972,230.77h2.541c-.106-8.376.438-16.651-.438-19.193a16.05,16.05,0,0,0-2.717-5.346A14.784,14.784,0,0,0,856.1,202.2C862.76,210,861.972,209.822,861.972,230.77Z" transform="translate(-741.642 -188.616)"/></g><g transform="translate(-537.24 -0.3)"><path class="s" d="M-1.762.5H60.461c1.577,97.015,2.454,138.994,2.454,138.994H37.149s8.589-77.91-11.042-76.07-17.79,84.4-17.79,84.4H-17.8Z" transform="translate(59.606 213.161)"/><path class="c" d="M25.652,13.85a70.48,70.48,0,0,0,9.9,6.485c-1.139,7.627-7.887,14.022-17.528,14.022-8.77,0-16.2-5.974-17.528-14.022,1.066-.8,10.128-5.451,11.919-6.485C17.071,11.164,22.941,11.826,25.652,13.85Z" transform="translate(76.624 60.993)"/><path class="c" d="M470.34,646.822l-1.84,17.061h22.7l2.1-20.683Z" transform="translate(-429.937 -259.521)"/><g transform="translate(58.805 0)"><path class="d" d="M14.07,0h28.14a14.2,14.2,0,0,1,14.07,14.328l-.059,16.059H.059L0,14.328A14.2,14.2,0,0,1,14.07,0Z" transform="translate(7.836 12.412)"/><ellipse class="c" cx="6.429" cy="6.429" rx="6.429" ry="6.429" transform="translate(0 42.18)"/><ellipse class="c" cx="6.429" cy="6.429" rx="6.429" ry="6.429" transform="translate(59.388 42.18)"/><path class="c" d="M28.547,14.7H51.382V29.745h5.265c-.3,3.3,0,1.871,0,5.658,0,16.31-12.581,29.531-28.1,29.531S.446,51.713.446,35.4c0-1.51-.177-2.8,0-5.658,1.557-.112,3.017-.062,6.153,0-.143-4.165,0-9.573,0-15.045Z" transform="translate(7.469 12.45)"/><g transform="translate(15.306 38.687)"><g class="ab" transform="matrix(1, 0, 0, 1, 463.13, -38.39)"><ellipse class="e" cx="9.184" cy="9.184" rx="9.184" ry="9.184" transform="translate(-463.13 38.39)"/></g><g class="aa" transform="matrix(1, 0, 0, 1, 463.13, -38.39)"><ellipse class="e" cx="9.184" cy="9.184" rx="9.184" ry="9.184" transform="translate(-439.86 38.39)"/></g></g><path class="d" d="M48.37-12.3c0,4.732-.088,8.589,0,12.707.295,13.848-17,14.46-17,14.46-21.386,0-24.626-1.052-24.626,4.207V29.941H.7v-15.6C-.619-3.361,36.627-9.583,48.37-12.3Z" transform="translate(7.282 12.3)"/></g><path class="f" d="M464.167,616.9,461.1,645.119l39.612-5.171,2.717-23.049Z" transform="translate(-429.022 -256.533)"/><path class="f" d="M531.8,607.5l1.577,26.379h31.287l3.418-26.379Z" transform="translate(-440.391 -255.371)"/><path class="g" d="M767.335,534.766,764.793,397.7,761.2,534.766Z" transform="translate(-644.902 -182.724)"/><rect class="h" width="66.605" height="13.866" transform="translate(55.653 201.119)"/><path class="g" d="M698.5,576.069h6.573c-.526-16.388.613-82.117,17.966-83.869C700.954,493.252,698.5,576.069,698.5,576.069Z" transform="translate(-637.151 -215.703)"/><path class="c" d="M536.44,637.6l-1.84,22.961h22.435l1.577-22.961Z" transform="translate(-438.985 -259.092)"/><path class="i" d="M462.2,665.991l1.84,8.852H492.26V663.8Z" transform="translate(-428.282 -262.331)"/><path class="j" d="M460.988,666.59c-41.54-17-40.489,24.889-40.489,24.889h65.991l-4.645-42.68h-22.7Z" transform="translate(-420.497 -236.814)"/><path class="f" d="M462.2,665.991l1.84,8.852H492.26V663.8Z" transform="translate(-428.282 -262.331)"/><path class="j" d="M446.3,666.81c42.026-17.211,40.962,25.2,40.962,25.2H420.5l4.7-43.205H448.16Z" transform="translate(-329.775 -236.99)"/><path class="f" d="M528.3,658.8v12.97l34.091-1.49,2.454-11.481Z" transform="translate(-439.082 -258.207)"/><path class="g" d="M41.446,28.915S40.834,29,36.626,29C35.312,1.743,21.84.42,0,4.57,24.434-6.638,40.035,3.345,41.433,28.214" transform="matrix(1, 0.017, -0.017, 1, 116.553, 425.382)"/><path class="g" d="M690.859,652l4.557,42.241L629.6,694.5l58.98-6.31Z" transform="translate(-629.51 -239.839)"/><path class="g" d="M709.873,589l-2.629,22.961L671.4,616.606l32.952-7.186Z" transform="translate(-635.554 -228.545)"/><path class="g" d="M771.823,578.6l-3.33,26.291H741.5l24.276-2.98Z" transform="translate(-644.219 -226.383)"/><path class="t" d="M-8.314.5s3.155,13.672,17.79,13.847S26.741.5,26.741.5L56.012,14.347,91.418,97.866l-58.1,59.769-8.5-11.568,44.432-50.3L45.583,43.618,32.35,84.9l.964,35.406H-26.368l-2.1-81.679-17.265,43.03L-3.757,66.491l3.768,14.2L-70.8,113.465l27.431-95.788Z" transform="translate(85.438 80.828)"/><path class="g" d="M653.228,385.564l-1.928,7.186L721.41,360.5Z" transform="translate(-636.574 -198.545)"/><path class="g" d="M757.3,396.383h5.872l-.964-35.406L775.441,319.7l-16.3,40.752Z" transform="translate(-644.42 -195.254)"/><path class="g" d="M823.732,377.7l1.84,4.294L771.5,437.557Z" transform="translate(-648.804 -203.301)"/><rect class="l" width="19.144" height="28.716" rx="2" transform="translate(87.202 112.039)"/><path class="g" d="M48.167,0l2.05,6.391L0,19.017Z" transform="matrix(0.999, 0.035, -0.035, 0.999, 59.155, 155.388)"/><path class="c" d="M-.3.5H19.853l-.789,17.966L-1.793,26-6,9.614Z" transform="translate(87.067 136.916)"/><g transform="translate(78.438 200.253)"><g class="z" transform="matrix(1, 0, 0, 1, 458.8, -199.95)"><rect class="e" width="21.033" height="15.6" transform="translate(-458.8 199.95)"/></g><path class="n" d="M741.033,408.047v15.6H720Z" transform="translate(-720 -408.047)"/></g><path class="g" d="M750.446,335.5l-.789,17.966L728.8,361l18.053-9.64Z" transform="translate(-643.526 -198.084)"/><path class="u" d="M753.672,436.623l10.589,14.028s-7.259,16.557-12.429,2.974S753.672,436.623,753.672,436.623Z" transform="translate(-640.354 -214.637)"/><g class="p" transform="translate(93.903 114.911)"><ellipse class="w" cx="2.872" cy="2.872" rx="2.872" ry="2.872"/><ellipse class="x" cx="2.872" cy="2.872" rx="2.572" ry="2.572"/></g><ellipse class="q" cx="1.914" cy="1.914" rx="1.914" ry="1.914" transform="translate(94.86 115.868)"/><g class="r" transform="translate(95.09 123.526)"><ellipse class="w" cx="1.914" cy="1.914" rx="1.914" ry="1.914"/><ellipse class="x" cx="1.914" cy="1.914" rx="1.714" ry="1.714"/></g><ellipse class="q" cx="0.957" cy="0.957" rx="0.957" ry="0.957" transform="translate(100.603 116.826)"/><path class="f" d="M0-.3A3.259,3.259,0,0,1,.574,1.232,3.848,3.848,0,0,1,0,2.859Z" transform="translate(106.346 119.71)"/><path class="f" d="M0,0A12.306,12.306,0,0,1,.574,2.967,9.024,9.024,0,0,1,0,5.648Z" transform="translate(106.346 123.526)"/><path class="g" d="M1352.426,244.892c-.259,1.293-.455,2.015-.526,2.279a6.418,6.418,0,0,0,8.851-5.171C1360.05,243.753,1356.815,246.406,1352.426,244.892Z" transform="translate(-1229.73 -192.66)"/><path class="g" d="M829.9,213.88c13.759-16.125,22.961-27.08,22.961-27.08s-.351,2.1,0,9.9c.051,1.123,0,2.191,0,3.593a12.175,12.175,0,0,1-6.4,10.517,24.463,24.463,0,0,1-10.516,3.067Z" transform="translate(-738.403 -186.712)"/><path class="g" d="M861.972,230.77h2.541c-.106-8.376.438-16.651-.438-19.193a16.05,16.05,0,0,0-2.717-5.346A14.784,14.784,0,0,0,856.1,202.2C862.76,210,861.972,209.822,861.972,230.77Z" transform="translate(-741.642 -188.616)"/></g><line class="v" y2="382.101" transform="translate(-571.417 36.333)"/></g></svg>