<svg xmlns="http://www.w3.org/2000/svg" xmlns:xlink="http://www.w3.org/1999/xlink" viewBox="657 159 550 550"><defs><style>.a{clip-path:url(#b);}.b{fill:#f15695;}.c{fill:#c5a6a6;}.d{fill:#393939;}.e{fill:#ff0;}.f{fill:#39ff9e;}.g{fill:rgba(0,0,0,0.1);}.h{fill:#393b3b;}.i{fill:#2dff98;}.j{fill:#3c3c3c;}.k{fill:#2086eb;}.l{fill:#383838;}.m{fill:#1d78d3;}.n{fill:rgba(0,0,0,0.02);}.o{fill:#d94d86;}.p,.r,.v,.x{fill:none;}.p{stroke:rgba(0,0,0,0.2);stroke-width:0.6px;}.q{fill:rgba(0,0,0,0.2);}.r{stroke:#39ff9e;stroke-width:0.4px;}.s{fill:#20958c;}.t{fill:#00c8ff;}.u{fill:#1d867e;}.v{stroke:rgba(0,0,0,0.1);stroke-width:2px;}.w{stroke:none;}.y{fill:#fff;}</style><clipPath id="b"><rect x="657" y="159" width="550" height="550"/></clipPath></defs><g id="a" class="a"><rect class="y" x="657" y="159" width="550" height="550"/><g transform="translate(629 159)"><path class="b" d="M.5.5h71c1.8,110.7,2.8,158.6,2.8,158.6H44.9s9.8-88.9-12.6-86.8S12,168.6,12,168.6H-17.8Z" transform="translate(127 259)"/><path class="c" d="M29.2,14.1a80.422,80.422,0,0,0,11.3,7.4c-1.3,8.7-9,16-20,16-10.007,0-18.482-6.817-20-16,1.216-.918,11.556-6.22,13.6-7.4C19.408,11.035,26.107,11.791,29.2,14.1Z" transform="translate(149 87)"/><path class="c" d="M470.6,647.333,468.5,666.8h25.9l2.4-23.6Z" transform="translate(-363 -189.7)"/><g transform="translate(-169 -27)"><path class="d" d="M16.055,0h32.11A16.2,16.2,0,0,1,64.22,16.349l-.067,18.325H.067L0,16.349A16.2,16.2,0,0,1,16.055,0Z" transform="translate(306.538 56.863)"/><circle class="c" cx="7.335" cy="7.335" r="7.335" transform="translate(297.597 90.83)"/><circle class="c" cx="7.335" cy="7.335" r="7.335" transform="translate(365.362 90.83)"/><path class="c" d="M32.522,14.7H58.579V31.868h6.008c-.338,3.76,0,2.135,0,6.456,0,18.61-14.356,33.7-32.065,33.7S.457,56.934.457,38.323c0-1.723-.2-3.192,0-6.456,1.776-.128,3.443-.071,7.021,0-.163-4.753,0-10.923,0-17.168Z" transform="translate(306.171 58.979)"/><circle class="e" cx="10.479" cy="10.479" r="10.479" transform="translate(315.062 86.844)"/><circle class="e" cx="10.479" cy="10.479" r="10.479" transform="translate(341.609 86.844)"/><path class="d" d="M55.1-12.3c0,5.4-.1,9.8,0,14.5C55.436,18,35.7,18.7,35.7,18.7c-24.4,0-28.1-1.2-28.1,4.8V35.9H.7V18.1C-.8-2.1,41.7-9.2,55.1-12.3Z" transform="translate(306 55)"/></g><path class="f" d="M464.6,616.9l-3.5,32.2,45.2-5.9,3.1-26.3Z" transform="translate(-363 -190)"/><path class="f" d="M531.8,607.5l1.8,30.1h35.7l3.9-30.1Z" transform="translate(-366 -190)"/><path class="g" d="M768.2,554.1l-2.9-156.4-4.1,156.4Z" transform="translate(-567 -136.7)"/><rect class="h" width="76" height="15.822" transform="translate(125 245.189)"/><path class="g" d="M698.5,587.9H706c-.6-18.7.7-93.7,20.5-95.7C701.3,493.4,698.5,587.9,698.5,587.9Z" transform="translate(-567 -161)"/><path class="c" d="M536.7,637.6l-2.1,26.2h25.6l1.8-26.2Z" transform="translate(-364 -190)"/><path class="i" d="M462.2,666.3l2.1,10.1h32.2V663.8Z" transform="translate(-362 -190)"/><path class="j" d="M466.7,669.1c-47.4-19.4-46.2,28.4-46.2,28.4h75.3l-5.3-48.7H464.6Z" transform="translate(-359 -163)"/><path class="f" d="M462.2,666.3l2.1,10.1h32.2V663.8Z" transform="translate(-362 -190)"/><path class="j" d="M449.938,669.35c47.954-19.639,46.74,28.75,46.74,28.75H420.5l5.362-49.3h26.2Z" transform="translate(-255.481 -163.2)"/><path class="f" d="M528.3,658.8v14.8l38.9-1.7,2.8-13.1Z" transform="translate(-365 -186)"/><path class="g" d="M809.461,696.516s-.7.1-5.5.1c-1.5-31.1-16.872-32.611-41.793-27.875,27.881-12.789,45.682-1.4,47.278,26.979" transform="matrix(1, 0.017, -0.017, 1, -555.982, -175.637)"/><path class="g" d="M699.5,652l5.2,48.2-75.1.3,67.3-7.2Z" transform="translate(-568 -166)"/><path class="g" d="M715.3,589l-3,26.2-40.9,5.3,37.6-8.2Z" transform="translate(-569 -162)"/><path class="g" d="M776.1,578.6l-3.8,30H741.5l27.7-3.4Z" transform="translate(-569 -161)"/><path class="k" d="M.5.5S4.1,16.1,20.8,16.3,40.5.5,40.5.5L73.9,16.3l40.4,95.3L48,179.8l-9.7-13.2L89,109.2,62,49.7,46.9,96.8,48,137.2H-20.1L-22.5,44-42.2,93.1,5.7,75.8,10,92l-80.8,37.4L-39.5,20.1Z" transform="translate(149 108)"/><path class="g" d="M653.5,389.1l-2.2,8.2,80-36.8Z" transform="translate(-573 -160)"/><path class="g" d="M757.3,407.2H764l-1.1-40.4L778,319.7l-18.6,46.5Z" transform="translate(-567 -162)"/><path class="g" d="M831.1,377.7l2.1,4.9L771.5,446Z" transform="translate(-570 -163)"/><rect class="l" width="21.845" height="32.767" rx="2" transform="translate(161 143.544)"/><path class="m" d="M754.761,364l2.339,7.293L699.8,385.7Z" transform="matrix(0.999, 0.035, -0.035, 0.999, -557.674, -195.194)"/><path class="c" d="M.5.5h23L22.6,21-1.2,29.6-6,10.9Z" transform="translate(160 172)"/><g transform="translate(-168 -4)"><rect class="e" width="24" height="17.8" transform="translate(319 248.2)"/><path class="n" d="M744,408.047v17.8H720Z" transform="translate(-401 -159.847)"/></g><path class="g" d="M753.5,335.5l-.9,20.5-23.8,8.6,20.6-11Z" transform="translate(-570 -163)"/><path class="o" d="M754.2,436.623l12.083,16.007S758,471.523,752.1,456.023,754.2,436.623,754.2,436.623Z" transform="translate(-563.4 -167.623)"/><g class="p" transform="translate(168.646 146.82)"><circle class="w" cx="3.277" cy="3.277" r="3.277"/><circle class="x" cx="3.277" cy="3.277" r="2.977"/></g><circle class="q" cx="2.184" cy="2.184" r="2.184" transform="translate(169.738 147.913)"/><g class="r" transform="translate(170 156.65)"><circle class="w" cx="2.184" cy="2.184" r="2.184"/><circle class="x" cx="2.184" cy="2.184" r="1.984"/></g><circle class="q" cx="1.092" cy="1.092" r="1.092" transform="translate(176.291 149.005)"/><path class="f" d="M0-.3A3.718,3.718,0,0,1,.655,1.448,4.391,4.391,0,0,1,0,3.3Z" transform="translate(182.845 152.254)"/><path class="f" d="M0,0A14.042,14.042,0,0,1,.655,3.386,10.3,10.3,0,0,1,0,6.444Z" transform="translate(182.845 156.65)"/><path class="g" d="M1352.5,245.3c-.3,1.476-.519,2.3-.6,2.6A7.324,7.324,0,0,0,1362,242C1361.2,244,1357.508,247.028,1352.5,245.3Z" transform="translate(-1151 -170)"/><path class="g" d="M829.9,217.7c15.7-18.4,26.2-30.9,26.2-30.9s-.4,2.4,0,11.3c.058,1.282,0,2.5,0,4.1a13.892,13.892,0,0,1-7.3,12,27.915,27.915,0,0,1-12,3.5Z" transform="translate(-664 -171)"/><path class="g" d="M862.8,234.8h2.9c-.122-9.558.5-19-.5-21.9a18.315,18.315,0,0,0-3.1-6.1,16.868,16.868,0,0,0-6-4.6C863.7,211.1,862.8,210.9,862.8,234.8Z" transform="translate(-664 -171)"/></g><g transform="translate(910 159)"><path class="s" d="M.5.5h71c1.8,110.7,2.8,158.6,2.8,158.6H44.9s9.8-88.9-12.6-86.8S12,168.6,12,168.6H-17.8Z" transform="translate(127 259)"/><path class="c" d="M29.2,14.1a80.422,80.422,0,0,0,11.3,7.4c-1.3,8.7-9,16-20,16-10.007,0-18.482-6.817-20-16,1.216-.918,11.556-6.22,13.6-7.4C19.408,11.035,26.107,11.791,29.2,14.1Z" transform="translate(149 87)"/><path class="c" d="M470.6,647.333,468.5,666.8h25.9l2.4-23.6Z" transform="translate(-363 -189.7)"/><g transform="translate(-169 -27)"><path class="d" d="M16.055,0h32.11A16.2,16.2,0,0,1,64.22,16.349l-.067,18.325H.067L0,16.349A16.2,16.2,0,0,1,16.055,0Z" transform="translate(306.538 56.863)"/><circle class="c" cx="7.335" cy="7.335" r="7.335" transform="translate(297.597 90.83)"/><circle class="c" cx="7.335" cy="7.335" r="7.335" transform="translate(365.362 90.83)"/><path class="c" d="M32.522,14.7H58.579V31.868h6.008c-.338,3.76,0,2.135,0,6.456,0,18.61-14.356,33.7-32.065,33.7S.457,56.934.457,38.323c0-1.723-.2-3.192,0-6.456,1.776-.128,3.443-.071,7.021,0-.163-4.753,0-10.923,0-17.168Z" transform="translate(306.171 58.979)"/><circle class="e" cx="10.479" cy="10.479" r="10.479" transform="translate(315.062 86.844)"/><circle class="e" cx="10.479" cy="10.479" r="10.479" transform="translate(341.609 86.844)"/><path class="d" d="M55.1-12.3c0,5.4-.1,9.8,0,14.5C55.436,18,35.7,18.7,35.7,18.7c-24.4,0-28.1-1.2-28.1,4.8V35.9H.7V18.1C-.8-2.1,41.7-9.2,55.1-12.3Z" transform="translate(306 55)"/></g><path class="f" d="M464.6,616.9l-3.5,32.2,45.2-5.9,3.1-26.3Z" transform="translate(-363 -190)"/><path class="f" d="M531.8,607.5l1.8,30.1h35.7l3.9-30.1Z" transform="translate(-366 -190)"/><path class="g" d="M768.2,554.1l-2.9-156.4-4.1,156.4Z" transform="translate(-567 -136.7)"/><rect class="h" width="76" height="15.822" transform="translate(125 245.189)"/><path class="g" d="M698.5,587.9H706c-.6-18.7.7-93.7,20.5-95.7C701.3,493.4,698.5,587.9,698.5,587.9Z" transform="translate(-567 -161)"/><path class="c" d="M536.7,637.6l-2.1,26.2h25.6l1.8-26.2Z" transform="translate(-364 -190)"/><path class="i" d="M462.2,666.3l2.1,10.1h32.2V663.8Z" transform="translate(-362 -190)"/><path class="j" d="M466.7,669.1c-47.4-19.4-46.2,28.4-46.2,28.4h75.3l-5.3-48.7H464.6Z" transform="translate(-359 -163)"/><path class="f" d="M462.2,666.3l2.1,10.1h32.2V663.8Z" transform="translate(-362 -190)"/><path class="j" d="M449.938,669.35c47.954-19.639,46.74,28.75,46.74,28.75H420.5l5.362-49.3h26.2Z" transform="translate(-255.481 -163.2)"/><path class="f" d="M528.3,658.8v14.8l38.9-1.7,2.8-13.1Z" transform="translate(-365 -186)"/><path class="g" d="M809.461,696.516s-.7.1-5.5.1c-1.5-31.1-16.872-32.611-41.793-27.875,27.881-12.789,45.682-1.4,47.278,26.979" transform="matrix(1, 0.017, -0.017, 1, -555.982, -175.637)"/><path class="g" d="M699.5,652l5.2,48.2-75.1.3,67.3-7.2Z" transform="translate(-568 -166)"/><path class="g" d="M715.3,589l-3,26.2-40.9,5.3,37.6-8.2Z" transform="translate(-569 -162)"/><path class="g" d="M776.1,578.6l-3.8,30H741.5l27.7-3.4Z" transform="translate(-569 -161)"/><path class="t" d="M.5.5S4.1,16.1,20.8,16.3,40.5.5,40.5.5L73.9,16.3l40.4,95.3L48,179.8l-9.7-13.2L89,109.2,62,49.7,46.9,96.8,48,137.2H-20.1L-22.5,44-42.2,93.1,5.7,75.8,10,92l-80.8,37.4L-39.5,20.1Z" transform="translate(149 108)"/><path class="g" d="M653.5,389.1l-2.2,8.2,80-36.8Z" transform="translate(-573 -160)"/><path class="g" d="M757.3,407.2H764l-1.1-40.4L778,319.7l-18.6,46.5Z" transform="translate(-567 -162)"/><path class="g" d="M831.1,377.7l2.1,4.9L771.5,446Z" transform="translate(-570 -163)"/><rect class="l" width="21.845" height="32.767" rx="2" transform="translate(161 143.544)"/><path class="g" d="M754.761,364l2.339,7.293L699.8,385.7Z" transform="matrix(0.999, 0.035, -0.035, 0.999, -557.674, -195.194)"/><path class="c" d="M.5.5h23L22.6,21-1.2,29.6-6,10.9Z" transform="translate(160 172)"/><g transform="translate(-168 -4)"><rect class="e" width="24" height="17.8" transform="translate(319 248.2)"/><path class="n" d="M744,408.047v17.8H720Z" transform="translate(-401 -159.847)"/></g><path class="g" d="M753.5,335.5l-.9,20.5-23.8,8.6,20.6-11Z" transform="translate(-570 -163)"/><path class="u" d="M754.2,436.623l12.083,16.007S758,471.523,752.1,456.023,754.2,436.623,754.2,436.623Z" transform="translate(-563.4 -167.623)"/><g class="p" transform="translate(168.646 146.82)"><circle class="w" cx="3.277" cy="3.277" r="3.277"/><circle class="x" cx="3.277" cy="3.277" r="2.977"/></g><circle class="q" cx="2.184" cy="2.184" r="2.184" transform="translate(169.738 147.913)"/><g class="r" transform="translate(170 156.65)"><circle class="w" cx="2.184" cy="2.184" r="2.184"/><circle class="x" cx="2.184" cy="2.184" r="1.984"/></g><circle class="q" cx="1.092" cy="1.092" r="1.092" transform="translate(176.291 149.005)"/><path class="f" d="M0-.3A3.718,3.718,0,0,1,.655,1.448,4.391,4.391,0,0,1,0,3.3Z" transform="translate(182.845 152.254)"/><path class="f" d="M0,0A14.042,14.042,0,0,1,.655,3.386,10.3,10.3,0,0,1,0,6.444Z" transform="translate(182.845 156.65)"/><path class="g" d="M1352.5,245.3c-.3,1.476-.519,2.3-.6,2.6A7.324,7.324,0,0,0,1362,242C1361.2,244,1357.508,247.028,1352.5,245.3Z" transform="translate(-1151 -170)"/><path class="g" d="M829.9,217.7c15.7-18.4,26.2-30.9,26.2-30.9s-.4,2.4,0,11.3c.058,1.282,0,2.5,0,4.1a13.892,13.892,0,0,1-7.3,12,27.915,27.915,0,0,1-12,3.5Z" transform="translate(-664 -171)"/><path class="g" d="M862.8,234.8h2.9c-.122-9.558.5-19-.5-21.9a18.315,18.315,0,0,0-3.1-6.1,16.868,16.868,0,0,0-6-4.6C863.7,211.1,862.8,210.9,862.8,234.8Z" transform="translate(-664 -171)"/></g><line class="v" y2="436" transform="translate(932.5 216.5)"/></g></svg>