<svg xmlns="http://www.w3.org/2000/svg" xmlns:xlink="http://www.w3.org/1999/xlink" viewBox="378 277 200 200"><defs><style>.a{clip-path:url(#h);}.b{fill:#414141;}.c{fill:#ffe500;}.d{fill:#fff;}.e{filter:url(#e);}.f{filter:url(#c);}.g{filter:url(#a);}</style><filter id="a" x="393.4" y="294.5" width="169.2" height="169.2" filterUnits="userSpaceOnUse"><feOffset dy="2" input="SourceAlpha"/><feGaussianBlur stdDeviation="1.5" result="b"/><feFlood flood-opacity="0.4"/><feComposite operator="in" in2="b"/><feComposite in="SourceGraphic"/></filter><filter id="c" x="470.553" y="316.291" width="57.283" height="123.459" filterUnits="userSpaceOnUse"><feOffset dy="1" input="SourceAlpha"/><feGaussianBlur stdDeviation="1" result="d"/><feFlood flood-opacity="0.302"/><feComposite operator="in" in2="d"/><feComposite in="SourceGraphic"/></filter><filter id="e" x="428.184" y="316.474" width="57.283" height="123.459" filterUnits="userSpaceOnUse"><feOffset dy="1" input="SourceAlpha"/><feGaussianBlur stdDeviation="1" result="f"/><feFlood flood-opacity="0.302"/><feComposite operator="in" in2="f"/><feComposite in="SourceGraphic"/></filter><clipPath id="h"><rect x="378" y="277" width="200" height="200"/></clipPath></defs><g id="g" class="a"><rect class="d" x="378" y="277" width="200" height="200"/><g class="g" transform="matrix(1, 0, 0, 1, 0, 0)"><circle class="b" cx="80.1" cy="80.1" r="80.1" transform="translate(397.9 297)"/></g><g transform="translate(431.184 318.291)"><g class="f" transform="matrix(1, 0, 0, 1, -431.18, -318.29)"><path class="c" d="M4.446,0,0,34.595H31.592L19.671,117.459l31.612-100H19.671L21.894,0Z" transform="translate(524.84 435.75) rotate(-180)"/></g><g class="e" transform="matrix(1, 0, 0, 1, -431.18, -318.29)"><path class="c" d="M1197.646-518.4,1193.2-483.8h31.592l-11.921,82.864,31.612-100h-31.612l2.223-17.455Z" transform="translate(-762.02 836.87)"/></g></g></g></svg>