<svg xmlns="http://www.w3.org/2000/svg" xmlns:xlink="http://www.w3.org/1999/xlink" viewBox="378 277 200 200"><defs><style>.a{clip-path:url(#h);}.b{fill:#414141;}.c{fill:#ffe500;}.d{fill:#fff;}.e{filter:url(#e);}.f{filter:url(#c);}.g{filter:url(#a);}</style><filter id="a" x="393.5" y="294.5" width="169" height="169" filterUnits="userSpaceOnUse"><feOffset dy="2" input="SourceAlpha"/><feGaussianBlur stdDeviation="1.5" result="b"/><feFlood flood-opacity="0.4"/><feComposite operator="in" in2="b"/><feComposite in="SourceGraphic"/></filter><filter id="c" x="470.653" y="316.264" width="57.283" height="123.312" filterUnits="userSpaceOnUse"><feOffset dy="1" input="SourceAlpha"/><feGaussianBlur stdDeviation="1" result="d"/><feFlood flood-opacity="0.302"/><feComposite operator="in" in2="d"/><feComposite in="SourceGraphic"/></filter><filter id="e" x="428.284" y="316.447" width="57.283" height="123.312" filterUnits="userSpaceOnUse"><feOffset dy="1" input="SourceAlpha"/><feGaussianBlur stdDeviation="1" result="f"/><feFlood flood-opacity="0.302"/><feComposite operator="in" in2="f"/><feComposite in="SourceGraphic"/></filter><clipPath id="h"><rect x="378" y="277" width="200" height="200"/></clipPath></defs><g id="g" class="a"><rect class="d" x="378" y="277" width="200" height="200"/><g transform="translate(378.1 277)"><g class="g" transform="matrix(1, 0, 0, 1, -378.1, -277)"><circle class="b" cx="80" cy="80" r="80" transform="translate(398 297)"/></g><g transform="translate(53.184 41.264)"><g class="f" transform="matrix(1, 0, 0, 1, -431.28, -318.26)"><path class="c" d="M4.446,0,0,34.552H31.592L19.671,117.312,51.283,17.433H19.671L21.894,0Z" transform="translate(524.94 435.58) rotate(-180)"/></g><g class="e" transform="matrix(1, 0, 0, 1, -431.28, -318.26)"><path class="c" d="M1197.646-518.4l-4.446,34.552h31.592l-11.921,82.761,31.612-99.879h-31.612l2.223-17.433Z" transform="translate(-761.92 836.85)"/></g></g></g></g></svg>