<svg xmlns="http://www.w3.org/2000/svg" xmlns:xlink="http://www.w3.org/1999/xlink" viewBox="-490 300 612 692"><defs><style>.a{clip-path:url(#f);}.b{fill:#b6fc0e;}.c{fill:#0eecfc;}.d{filter:url(#c);}.e{filter:url(#a);}</style><filter id="a" x="-478" y="316" width="588" height="668" filterUnits="userSpaceOnUse"><feOffset dy="4" input="SourceAlpha"/><feGaussianBlur stdDeviation="3" result="b"/><feFlood flood-opacity="0.302"/><feComposite operator="in" in2="b"/><feComposite in="SourceGraphic"/></filter><filter id="c" x="-484" y="312" width="600" height="600" filterUnits="userSpaceOnUse"><feOffset dy="6" input="SourceAlpha"/><feGaussianBlur stdDeviation="5" result="d"/><feFlood flood-opacity="0.302"/><feComposite operator="in" in2="d"/><feComposite in="SourceGraphic"/></filter><clipPath id="f"><rect x="-490" y="300" width="612" height="692"/></clipPath></defs><g id="e" class="a"><g class="e" transform="matrix(1, 0, 0, 1, 0, 0)"><path class="b" d="M0,0H0L570,650H0Z" transform="translate(-469 321)"/></g><g class="d" transform="matrix(1, 0, 0, 1, 0, 0)"><path class="c" d="M.95,0H285A285,285,0,0,1,570,285v0A285,285,0,0,1,285,570h0A285,285,0,0,1,0,285V.95A.95.95,0,0,1,.95,0Z" transform="translate(-469 321)"/></g></g></svg>