<?xml version="1.0" encoding="utf-8"?>
<!-- Generator: Adobe Illustrator 16.0.0, SVG Export Plug-In . SVG Version: 6.00 Build 0)  -->
<!DOCTYPE svg PUBLIC "-//W3C//DTD SVG 1.1//EN" "http://www.w3.org/Graphics/SVG/1.1/DTD/svg11.dtd">
<svg version="1.1" id="Layer_1" xmlns="http://www.w3.org/2000/svg" xmlns:xlink="http://www.w3.org/1999/xlink" x="0px" y="0px"
	 width="612px" height="792px" viewBox="0 0 612 792" enable-background="new 0 0 612 792" xml:space="preserve">
<g id="me">
	<g id="body">
		<g id="upper_1_">
			<path id="upper" fill="#6D2EE5" d="M347.73,324.157c4.063,0.718,8.087,1.846,11.743,3.589c4.501,2.144,7.646,6.007,9.729,10.591
				c0.876,1.929,1.645,3.916,2.017,6.023c0.312,1.744,1.202,2.914,2.775,3.899c5.174,3.242,10.238,6.66,15.306,10.069
				c2.21,1.486,4.392,2.335,7.201,1.728c3.771-0.814,7.113,0.541,9.914,3.109c0.962,0.882,1.965,1.623,3.132,2.198
				c2.685,1.321,4.632,3.363,6.043,6.016c2.66,5,7.046,8.044,12.087,10.257c2.6,1.14,4.718,2.588,5.028,5.742
				c0.153,1.555,1.09,2.706,2.376,3.582c2.718,1.849,5.502,3.58,8.596,4.735c4.598,1.715,8.604,4.575,13.057,6.597
				c14.003,6.358,26.96,14.679,40.46,21.981c9.691,5.241,16.056,13.654,19.854,23.993c2.602,7.071,5.912,13.836,9.324,20.526
				c3.98,7.805,7.754,15.622,9.927,24.188c0.97,3.818,3.311,7.285,4.345,11.101c2.122,7.8,5.353,15.276,6.563,23.354
				c0.646,4.306,2.488,8.36,3.206,12.696c1.295,7.821,0.686,15.434-1.443,23.078c-1.786,6.418-3.271,12.972-1.763,19.767
				c0.722,3.247,2.06,6.229,3.542,9.146c6.032,11.865,7.534,24.315,4.983,37.311c-0.288,1.483-0.241,2.917-0.041,4.396
				c0.733,5.393,0.111,10.792-0.014,16.188c-0.037,1.614,0.003,3.191,0.31,4.791c0.725,3.819,0.479,7.653,0.262,11.524
				c-0.314,5.56-0.457,11.13,2.138,16.414c1.87,3.809,1.309,7.764,0.198,11.841c-1.533,5.646-4.102,10.938-5.374,16.646
				c-0.542,2.437-0.347,4.834,0.22,7.254c2.357,10.07,4.437,20.2,5.852,30.458c0.575,4.191,1.854,8.267,2.048,12.544
				c0.175,3.898,0.299,3.896-3.48,3.896c-167.773,0-335.553,0-503.33,0c-2.839,0-2.859-0.004-2.388-2.857
				c0.271-1.648,0.371-3.386,0.976-4.908c2.653-6.688,1.518-13.874,2.913-20.713c0.252-1.237-0.489-1.392-1.395-1.531
				c-3.14-0.494-4.007-2.229-2.875-5.217c1.402-3.697,3.843-6.827,5.479-10.397c0.623-1.355,0.48-2.287-0.54-3.25
				c-0.607-0.569-1.188-1.181-1.716-1.823c-3.202-3.904-3.37-5.91-0.839-10.307c0.598-1.038,0.972-2.101,0.821-3.302
				c-0.775-6.184,0.433-12.185,1.881-18.113c0.72-2.942,2.477-5.538,4.555-7.741c1.375-1.459,2.181-3.121,1.688-4.861
				c-1.485-5.241,0.356-9.73,2.651-14.199c0.94-1.83,1.813-3.694,2.75-5.526c2.083-4.078,2.526-8.264,1.202-12.699
				c-2.681-8.981-3.048-18.104-1.121-27.272c1.627-7.744,2.636-15.58,3.833-23.392c0.787-5.134,2.324-10.125,2.618-15.372
				c0.22-3.926,0.024-7.846,0.285-11.764c0.405-6.08,2.537-11.813,3.413-17.779c1.082-7.366,2.4-14.723,2.507-22.201
				c0.093-6.578,0.777-13.074,2.224-19.516c0.985-4.384,0.917-8.943,1.964-13.346c0.925-3.889,2.03-7.709,3.594-11.389
				c0.76-1.789,1.079-3.692,1.579-5.553c2.717-10.084,5.963-19.943,12.139-28.567c6.104-8.523,13.99-14.863,23.601-18.938
				c3.72-1.574,7.027-3.708,10.333-5.934c5.855-3.938,12.408-6.478,18.831-9.271c1.055-0.461,2.09-0.998,3.061-1.615
				c1.308-0.829,1.97-1.873,1.872-3.65c-0.28-5.035,4.047-9.433,9.653-9.838c1.99-0.144,3.245-1.033,4.596-2.362
				c3.866-3.802,6.686-8.467,10.548-12.283c4.341-4.29,9.808-5.957,15.424-7.405c1.98-0.51,4.062-0.579,5.955-1.5
				c0.908-0.442,1.438-1.08,1.563-2.03c0.685-5.173,3.447-9.291,7.065-12.729c2.599-2.469,4.57-5.515,7.483-7.671
				c2.424-1.794,4.571-3.953,7.183-5.507c0.947-0.563,1.927-1.031,3.051-1.102c0.92,3.5,0.889,7.097,1.081,10.671
				c-0.353,0.367-0.786,0.685-1.045,1.108c-3.712,6.058-6.274,12.487-6.623,19.699c-0.276,5.722,0.05,11.444-0.101,17.155
				c-0.218,8.261,1.146,16.12,4.621,23.61c1.46,3.148,3.123,6.218,4.375,9.442c3.797,9.784,9.462,18.521,15.034,27.313
				c3.162,4.99,6.71,9.746,9.687,14.84c4.283,7.331,9.675,13.685,16.425,18.703c8.126,6.044,15.838,6.43,23.598,0.008
				c2.771-2.293,5.492-4.646,8.338-6.85c2.153-1.668,4.01-3.606,5.766-5.66c3.553-4.155,6.603-8.689,9.605-13.237
				c2.868-4.344,6.315-8.271,8.888-12.833c5.556-9.853,11.263-19.62,16.798-29.48c6.396-11.395,12.576-22.821,14.332-36.141
				c1.049-7.962,1.353-15.727-1.108-23.446c0.688-5.706-0.607-10.947-3.655-15.791c-0.854-1.351-1.985-2.246-3.481-2.877
				c-1.893-0.799-3.887-0.755-5.834-1.093C348.851,331.469,347.912,327.878,347.73,324.157z"/>
		</g>
		<g id="hoodi">
			<g>
				<g>
					<defs>
						<path id="SVGID_1_" d="M347.73,324.157c4.063,0.718,8.087,1.846,11.743,3.589c4.501,2.144,7.646,6.007,9.729,10.591
							c0.876,1.929,1.645,3.916,2.017,6.023c0.312,1.744,1.202,2.914,2.775,3.899c5.174,3.242,10.238,6.66,15.306,10.069
							c2.21,1.486,4.392,2.335,7.201,1.728c3.771-0.814,7.113,0.541,9.914,3.109c0.962,0.882,1.965,1.623,3.132,2.198
							c2.685,1.321,4.632,3.363,6.043,6.016c2.66,5,7.046,8.044,12.087,10.257c2.6,1.14,4.718,2.588,5.028,5.742
							c0.153,1.555,1.09,2.706,2.376,3.582c2.718,1.849,5.502,3.58,8.596,4.735c4.598,1.715,8.604,4.575,13.057,6.597
							c14.003,6.358,26.96,14.679,40.46,21.981c9.691,5.241,16.056,13.654,19.854,23.993c2.602,7.071,5.912,13.836,9.324,20.526
							c3.98,7.805,7.754,15.622,9.927,24.188c0.97,3.818,3.311,7.285,4.345,11.101c2.122,7.8,5.353,15.276,6.563,23.354
							c0.646,4.306,2.488,8.36,3.206,12.696c1.295,7.821,0.686,15.434-1.443,23.078c-1.786,6.418-3.271,12.972-1.763,19.767
							c0.722,3.247,2.06,6.229,3.542,9.146c6.032,11.865,7.534,24.315,4.983,37.311c-0.288,1.483-0.241,2.917-0.041,4.396
							c0.733,5.393,0.111,10.792-0.014,16.188c-0.037,1.614,0.003,3.191,0.31,4.791c0.725,3.819,0.479,7.653,0.262,11.524
							c-0.314,5.56-0.457,11.13,2.138,16.414c1.87,3.809,1.309,7.764,0.198,11.841c-1.533,5.646-4.102,10.938-5.374,16.646
							c-0.542,2.437-0.347,4.834,0.22,7.254c2.357,10.07,4.437,20.2,5.852,30.458c0.575,4.191,1.854,8.267,2.048,12.544
							c0.175,3.898,0.299,3.896-3.48,3.896c-167.773,0-335.553,0-503.33,0c-2.839,0-2.859-0.004-2.388-2.857
							c0.271-1.648,0.371-3.386,0.976-4.908c2.653-6.688,1.518-13.874,2.913-20.713c0.252-1.237-0.489-1.392-1.395-1.531
							c-3.14-0.494-4.007-2.229-2.875-5.217c1.402-3.697,3.843-6.827,5.479-10.397c0.623-1.355,0.48-2.287-0.54-3.25
							c-0.607-0.569-1.188-1.181-1.716-1.823c-3.202-3.904-3.37-5.91-0.839-10.307c0.598-1.038,0.972-2.101,0.821-3.302
							c-0.775-6.184,0.433-12.185,1.881-18.113c0.72-2.942,2.477-5.538,4.555-7.741c1.375-1.459,2.181-3.121,1.688-4.861
							c-1.485-5.241,0.356-9.73,2.651-14.199c0.94-1.83,1.813-3.694,2.75-5.526c2.083-4.078,2.526-8.264,1.202-12.699
							c-2.681-8.981-3.048-18.104-1.121-27.272c1.627-7.744,2.636-15.58,3.833-23.392c0.787-5.134,2.324-10.125,2.618-15.372
							c0.22-3.926,0.024-7.846,0.285-11.764c0.405-6.08,2.537-11.813,3.413-17.779c1.082-7.366,2.4-14.723,2.507-22.201
							c0.093-6.578,0.777-13.074,2.224-19.516c0.985-4.384,0.917-8.943,1.964-13.346c0.925-3.889,2.03-7.709,3.594-11.389
							c0.76-1.789,1.079-3.692,1.579-5.553c2.717-10.084,5.963-19.943,12.139-28.567c6.104-8.523,13.99-14.863,23.601-18.938
							c3.72-1.574,7.027-3.708,10.333-5.934c5.855-3.938,12.408-6.478,18.831-9.271c1.055-0.461,2.09-0.998,3.061-1.615
							c1.308-0.829,1.97-1.873,1.872-3.65c-0.28-5.035,4.047-9.433,9.653-9.838c1.99-0.144,3.245-1.033,4.596-2.362
							c3.866-3.802,6.686-8.467,10.548-12.283c4.341-4.29,9.808-5.957,15.424-7.405c1.98-0.51,4.062-0.579,5.955-1.5
							c0.908-0.442,1.438-1.08,1.563-2.03c0.685-5.173,3.447-9.291,7.065-12.729c2.599-2.469,4.57-5.515,7.483-7.671
							c2.424-1.794,4.571-3.953,7.183-5.507c0.947-0.563,1.927-1.031,3.051-1.102c0.92,3.5,0.889,7.097,1.081,10.671
							c-0.353,0.367-0.786,0.685-1.045,1.108c-3.712,6.058-6.274,12.487-6.623,19.699c-0.276,5.722,0.05,11.444-0.101,17.155
							c-0.218,8.261,1.146,16.12,4.621,23.61c1.46,3.148,3.123,6.218,4.375,9.442c3.797,9.784,9.462,18.521,15.034,27.313
							c3.162,4.99,6.71,9.746,9.687,14.84c4.283,7.331,9.675,13.685,16.425,18.703c8.126,6.044,15.838,6.43,23.598,0.008
							c2.771-2.293,5.492-4.646,8.338-6.85c2.153-1.668,4.01-3.606,5.766-5.66c3.553-4.155,6.603-8.689,9.605-13.237
							c2.868-4.344,6.315-8.271,8.888-12.833c5.556-9.853,11.263-19.62,16.798-29.48c6.396-11.395,12.576-22.821,14.332-36.141
							c1.049-7.962,1.353-15.727-1.108-23.446c0.688-5.706-0.607-10.947-3.655-15.791c-0.854-1.351-1.985-2.246-3.481-2.877
							c-1.893-0.799-3.887-0.755-5.834-1.093C348.851,331.469,347.912,327.878,347.73,324.157z"/>
					</defs>
					<clipPath id="SVGID_2_">
						<use xlink:href="#SVGID_1_"  overflow="visible"/>
					</clipPath>
					<g id="hoody" clip-path="url(#SVGID_2_)">
						<path fill="#03a9f4" d="M294.257,486.016c0,0,82.938-34.669,139.214-96.592C489.75,327.501,422,349.75,422,349.75l-30-4.783
							l-43.5-38.717"/>
						<path fill="#03a9f4" d="M160.375,403.325c0,0,33.375,47.925,97.875,70.925l23.921,11.592L240.75,415.5l-1.5-77l-16.25-9
							l-67,59"/>
					</g>
				</g>
			</g>
		</g>
		<g id="zip">
			<g>
				<g>
					<defs>
						<path id="SVGID_3_" d="M347.73,324.157c4.063,0.718,8.087,1.846,11.743,3.589c4.501,2.144,7.646,6.007,9.729,10.591
							c0.876,1.929,1.645,3.916,2.017,6.023c0.312,1.744,1.202,2.914,2.775,3.899c5.174,3.242,10.238,6.66,15.306,10.069
							c2.21,1.486,4.392,2.335,7.201,1.728c3.771-0.814,7.113,0.541,9.914,3.109c0.962,0.882,1.965,1.623,3.132,2.198
							c2.685,1.321,4.632,3.363,6.043,6.016c2.66,5,7.046,8.044,12.087,10.257c2.6,1.14,4.718,2.588,5.028,5.742
							c0.153,1.555,1.09,2.706,2.376,3.582c2.718,1.849,5.502,3.58,8.596,4.735c4.598,1.715,8.604,4.575,13.057,6.597
							c14.003,6.358,26.96,14.679,40.46,21.981c9.691,5.241,16.056,13.654,19.854,23.993c2.602,7.071,5.912,13.836,9.324,20.526
							c3.98,7.805,7.754,15.622,9.927,24.188c0.97,3.818,3.311,7.285,4.345,11.101c2.122,7.8,5.353,15.276,6.563,23.354
							c0.646,4.306,2.488,8.36,3.206,12.696c1.295,7.821,0.686,15.434-1.443,23.078c-1.786,6.418-3.271,12.972-1.763,19.767
							c0.722,3.247,2.06,6.229,3.542,9.146c6.032,11.865,7.534,24.315,4.983,37.311c-0.288,1.483-0.241,2.917-0.041,4.396
							c0.733,5.393,0.111,10.792-0.014,16.188c-0.037,1.614,0.003,3.191,0.31,4.791c0.725,3.819,0.479,7.653,0.262,11.524
							c-0.314,5.56-0.457,11.13,2.138,16.414c1.87,3.809,1.309,7.764,0.198,11.841c-1.533,5.646-4.102,10.938-5.374,16.646
							c-0.542,2.437-0.347,4.834,0.22,7.254c2.357,10.07,4.437,20.2,5.852,30.458c0.575,4.191,1.854,8.267,2.048,12.544
							c0.175,3.898,0.299,3.896-3.48,3.896c-167.773,0-335.553,0-503.33,0c-2.839,0-2.859-0.004-2.388-2.857
							c0.271-1.648,0.371-3.386,0.976-4.908c2.653-6.688,1.518-13.874,2.913-20.713c0.252-1.237-0.489-1.392-1.395-1.531
							c-3.14-0.494-4.007-2.229-2.875-5.217c1.402-3.697,3.843-6.827,5.479-10.397c0.623-1.355,0.48-2.287-0.54-3.25
							c-0.607-0.569-1.188-1.181-1.716-1.823c-3.202-3.904-3.37-5.91-0.839-10.307c0.598-1.038,0.972-2.101,0.821-3.302
							c-0.775-6.184,0.433-12.185,1.881-18.113c0.72-2.942,2.477-5.538,4.555-7.741c1.375-1.459,2.181-3.121,1.688-4.861
							c-1.485-5.241,0.356-9.73,2.651-14.199c0.94-1.83,1.813-3.694,2.75-5.526c2.083-4.078,2.526-8.264,1.202-12.699
							c-2.681-8.981-3.048-18.104-1.121-27.272c1.627-7.744,2.636-15.58,3.833-23.392c0.787-5.134,2.324-10.125,2.618-15.372
							c0.22-3.926,0.024-7.846,0.285-11.764c0.405-6.08,2.537-11.813,3.413-17.779c1.082-7.366,2.4-14.723,2.507-22.201
							c0.093-6.578,0.777-13.074,2.224-19.516c0.985-4.384,0.917-8.943,1.964-13.346c0.925-3.889,2.03-7.709,3.594-11.389
							c0.76-1.789,1.079-3.692,1.579-5.553c2.717-10.084,5.963-19.943,12.139-28.567c6.104-8.523,13.99-14.863,23.601-18.938
							c3.72-1.574,7.027-3.708,10.333-5.934c5.855-3.938,12.408-6.478,18.831-9.271c1.055-0.461,2.09-0.998,3.061-1.615
							c1.308-0.829,1.97-1.873,1.872-3.65c-0.28-5.035,4.047-9.433,9.653-9.838c1.99-0.144,3.245-1.033,4.596-2.362
							c3.866-3.802,6.686-8.467,10.548-12.283c4.341-4.29,9.808-5.957,15.424-7.405c1.98-0.51,4.062-0.579,5.955-1.5
							c0.908-0.442,1.438-1.08,1.563-2.03c0.685-5.173,3.447-9.291,7.065-12.729c2.599-2.469,4.57-5.515,7.483-7.671
							c2.424-1.794,4.571-3.953,7.183-5.507c0.947-0.563,1.927-1.031,3.051-1.102c0.92,3.5,0.889,7.097,1.081,10.671
							c-0.353,0.367-0.786,0.685-1.045,1.108c-3.712,6.058-6.274,12.487-6.623,19.699c-0.276,5.722,0.05,11.444-0.101,17.155
							c-0.218,8.261,1.146,16.12,4.621,23.61c1.46,3.148,3.123,6.218,4.375,9.442c3.797,9.784,9.462,18.521,15.034,27.313
							c3.162,4.99,6.71,9.746,9.687,14.84c4.283,7.331,9.675,13.685,16.425,18.703c8.126,6.044,15.838,6.43,23.598,0.008
							c2.771-2.293,5.492-4.646,8.338-6.85c2.153-1.668,4.01-3.606,5.766-5.66c3.553-4.155,6.603-8.689,9.605-13.237
							c2.868-4.344,6.315-8.271,8.888-12.833c5.556-9.853,11.263-19.62,16.798-29.48c6.396-11.395,12.576-22.821,14.332-36.141
							c1.049-7.962,1.353-15.727-1.108-23.446c0.688-5.706-0.607-10.947-3.655-15.791c-0.854-1.351-1.985-2.246-3.481-2.877
							c-1.893-0.799-3.887-0.755-5.834-1.093C348.851,331.469,347.912,327.878,347.73,324.157z"/>
					</defs>
					<clipPath id="SVGID_4_">
						<use xlink:href="#SVGID_3_"  overflow="visible"/>
					</clipPath>
					<g id="chain" clip-path="url(#SVGID_4_)">
						<path id="chain_line" fill="#03a9f4" d="M263.583,765.386c0,0,12.858-83.886,15.167-193.886c0,0,1.662-40.207,7.171-86.854
							c5.51-46.646,8.239-13.738,6.519,2.476c-1.72,16.214-9.108,69.548-7.972,85.548c1.136,16-6.819,142.104-13.071,192.719"/>
						<polyline fill="#848484" points="285.479,521.464 294.375,520.75 292.482,497.165 283.585,497.88 						"/>
						<polyline fill="#03a9f4" points="286.686,509.44 291.287,509.071 290.521,499.51 285.918,499.879 						"/>
						<polyline fill="#848484" points="286.11,498.477 289.828,498.962 290.69,492.352 287.048,491.288 						"/>
						<path fill="#848484" d="M279.41,484.493c0,0,8.64,21.42,18.082,0"/>
					</g>
				</g>
			</g>
		</g>
		<g id="rope_1_">
			<g>
				<g>
					<defs>
						<path id="SVGID_5_" d="M347.73,324.157c4.063,0.718,8.087,1.846,11.743,3.589c4.501,2.144,7.646,6.007,9.729,10.591
							c0.876,1.929,1.645,3.916,2.017,6.023c0.312,1.744,1.202,2.914,2.775,3.899c5.174,3.242,10.238,6.66,15.306,10.069
							c2.21,1.486,4.392,2.335,7.201,1.728c3.771-0.814,7.113,0.541,9.914,3.109c0.962,0.882,1.965,1.623,3.132,2.198
							c2.685,1.321,4.632,3.363,6.043,6.016c2.66,5,7.046,8.044,12.087,10.257c2.6,1.14,4.718,2.588,5.028,5.742
							c0.153,1.555,1.09,2.706,2.376,3.582c2.718,1.849,5.502,3.58,8.596,4.735c4.598,1.715,8.604,4.575,13.057,6.597
							c14.003,6.358,26.96,14.679,40.46,21.981c9.691,5.241,16.056,13.654,19.854,23.993c2.602,7.071,5.912,13.836,9.324,20.526
							c3.98,7.805,7.754,15.622,9.927,24.188c0.97,3.818,3.311,7.285,4.345,11.101c2.122,7.8,5.353,15.276,6.563,23.354
							c0.646,4.306,2.488,8.36,3.206,12.696c1.295,7.821,0.686,15.434-1.443,23.078c-1.786,6.418-3.271,12.972-1.763,19.767
							c0.722,3.247,2.06,6.229,3.542,9.146c6.032,11.865,7.534,24.315,4.983,37.311c-0.288,1.483-0.241,2.917-0.041,4.396
							c0.733,5.393,0.111,10.792-0.014,16.188c-0.037,1.614,0.003,3.191,0.31,4.791c0.725,3.819,0.479,7.653,0.262,11.524
							c-0.314,5.56-0.457,11.13,2.138,16.414c1.87,3.809,1.309,7.764,0.198,11.841c-1.533,5.646-4.102,10.938-5.374,16.646
							c-0.542,2.437-0.347,4.834,0.22,7.254c2.357,10.07,4.437,20.2,5.852,30.458c0.575,4.191,1.854,8.267,2.048,12.544
							c0.175,3.898,0.299,3.896-3.48,3.896c-167.773,0-335.553,0-503.33,0c-2.839,0-2.859-0.004-2.388-2.857
							c0.271-1.648,0.371-3.386,0.976-4.908c2.653-6.688,1.518-13.874,2.913-20.713c0.252-1.237-0.489-1.392-1.395-1.531
							c-3.14-0.494-4.007-2.229-2.875-5.217c1.402-3.697,3.843-6.827,5.479-10.397c0.623-1.355,0.48-2.287-0.54-3.25
							c-0.607-0.569-1.188-1.181-1.716-1.823c-3.202-3.904-3.37-5.91-0.839-10.307c0.598-1.038,0.972-2.101,0.821-3.302
							c-0.775-6.184,0.433-12.185,1.881-18.113c0.72-2.942,2.477-5.538,4.555-7.741c1.375-1.459,2.181-3.121,1.688-4.861
							c-1.485-5.241,0.356-9.73,2.651-14.199c0.94-1.83,1.813-3.694,2.75-5.526c2.083-4.078,2.526-8.264,1.202-12.699
							c-2.681-8.981-3.048-18.104-1.121-27.272c1.627-7.744,2.636-15.58,3.833-23.392c0.787-5.134,2.324-10.125,2.618-15.372
							c0.22-3.926,0.024-7.846,0.285-11.764c0.405-6.08,2.537-11.813,3.413-17.779c1.082-7.366,2.4-14.723,2.507-22.201
							c0.093-6.578,0.777-13.074,2.224-19.516c0.985-4.384,0.917-8.943,1.964-13.346c0.925-3.889,2.03-7.709,3.594-11.389
							c0.76-1.789,1.079-3.692,1.579-5.553c2.717-10.084,5.963-19.943,12.139-28.567c6.104-8.523,13.99-14.863,23.601-18.938
							c3.72-1.574,7.027-3.708,10.333-5.934c5.855-3.938,12.408-6.478,18.831-9.271c1.055-0.461,2.09-0.998,3.061-1.615
							c1.308-0.829,1.97-1.873,1.872-3.65c-0.28-5.035,4.047-9.433,9.653-9.838c1.99-0.144,3.245-1.033,4.596-2.362
							c3.866-3.802,6.686-8.467,10.548-12.283c4.341-4.29,9.808-5.957,15.424-7.405c1.98-0.51,4.062-0.579,5.955-1.5
							c0.908-0.442,1.438-1.08,1.563-2.03c0.685-5.173,3.447-9.291,7.065-12.729c2.599-2.469,4.57-5.515,7.483-7.671
							c2.424-1.794,4.571-3.953,7.183-5.507c0.947-0.563,1.927-1.031,3.051-1.102c0.92,3.5,0.889,7.097,1.081,10.671
							c-0.353,0.367-0.786,0.685-1.045,1.108c-3.712,6.058-6.274,12.487-6.623,19.699c-0.276,5.722,0.05,11.444-0.101,17.155
							c-0.218,8.261,1.146,16.12,4.621,23.61c1.46,3.148,3.123,6.218,4.375,9.442c3.797,9.784,9.462,18.521,15.034,27.313
							c3.162,4.99,6.71,9.746,9.687,14.84c4.283,7.331,9.675,13.685,16.425,18.703c8.126,6.044,15.838,6.43,23.598,0.008
							c2.771-2.293,5.492-4.646,8.338-6.85c2.153-1.668,4.01-3.606,5.766-5.66c3.553-4.155,6.603-8.689,9.605-13.237
							c2.868-4.344,6.315-8.271,8.888-12.833c5.556-9.853,11.263-19.62,16.798-29.48c6.396-11.395,12.576-22.821,14.332-36.141
							c1.049-7.962,1.353-15.727-1.108-23.446c0.688-5.706-0.607-10.947-3.655-15.791c-0.854-1.351-1.985-2.246-3.481-2.877
							c-1.893-0.799-3.887-0.755-5.834-1.093C348.851,331.469,347.912,327.878,347.73,324.157z"/>
					</defs>
					<clipPath id="SVGID_6_">
						<use xlink:href="#SVGID_5_"  overflow="visible"/>
					</clipPath>
					<g id="rope" clip-path="url(#SVGID_6_)">
						<path fill="#848484" d="M201.282,443.37c0,0,7.303-4.676,9.76,7.019c2.457,11.695,5.833,29.194,6.708,34.194
							s0.333,17.751,4.333,33.084s4.167,11.5,4.167,11.5s-3.5,9.334-10.833,1.167l0.667-11.667c0,0-1.333-9.542-3.833-32.667
							s-5.271-35.081-8.333-40.166"/>
						<path fill="#848484" d="M356.401,452.583c0,0-11.068-3.582-12.401,3.751c0,0,5.068,21.667,6.201,31s2.466,49.667,1.466,63
							c0,0-3.354,10.729-3.917,12.854s5.875,8.688,9.75,0.438V550.75c0,0,4.333-33.998-6.75-94.632"/>
					</g>
				</g>
			</g>
		</g>
		<g id="collor_1_">
			<g>
				<g>
					<defs>
						<path id="SVGID_7_" d="M347.73,324.157c4.063,0.718,8.087,1.846,11.743,3.589c4.501,2.144,7.646,6.007,9.729,10.591
							c0.876,1.929,1.645,3.916,2.017,6.023c0.312,1.744,1.202,2.914,2.775,3.899c5.174,3.242,10.238,6.66,15.306,10.069
							c2.21,1.486,4.392,2.335,7.201,1.728c3.771-0.814,7.113,0.541,9.914,3.109c0.962,0.882,1.965,1.623,3.132,2.198
							c2.685,1.321,4.632,3.363,6.043,6.016c2.66,5,7.046,8.044,12.087,10.257c2.6,1.14,4.718,2.588,5.028,5.742
							c0.153,1.555,1.09,2.706,2.376,3.582c2.718,1.849,5.502,3.58,8.596,4.735c4.598,1.715,8.604,4.575,13.057,6.597
							c14.003,6.358,26.96,14.679,40.46,21.981c9.691,5.241,16.056,13.654,19.854,23.993c2.602,7.071,5.912,13.836,9.324,20.526
							c3.98,7.805,7.754,15.622,9.927,24.188c0.97,3.818,3.311,7.285,4.345,11.101c2.122,7.8,5.353,15.276,6.563,23.354
							c0.646,4.306,2.488,8.36,3.206,12.696c1.295,7.821,0.686,15.434-1.443,23.078c-1.786,6.418-3.271,12.972-1.763,19.767
							c0.722,3.247,2.06,6.229,3.542,9.146c6.032,11.865,7.534,24.315,4.983,37.311c-0.288,1.483-0.241,2.917-0.041,4.396
							c0.733,5.393,0.111,10.792-0.014,16.188c-0.037,1.614,0.003,3.191,0.31,4.791c0.725,3.819,0.479,7.653,0.262,11.524
							c-0.314,5.56-0.457,11.13,2.138,16.414c1.87,3.809,1.309,7.764,0.198,11.841c-1.533,5.646-4.102,10.938-5.374,16.646
							c-0.542,2.437-0.347,4.834,0.22,7.254c2.357,10.07,4.437,20.2,5.852,30.458c0.575,4.191,1.854,8.267,2.048,12.544
							c0.175,3.898,0.299,3.896-3.48,3.896c-167.773,0-335.553,0-503.33,0c-2.839,0-2.859-0.004-2.388-2.857
							c0.271-1.648,0.371-3.386,0.976-4.908c2.653-6.688,1.518-13.874,2.913-20.713c0.252-1.237-0.489-1.392-1.395-1.531
							c-3.14-0.494-4.007-2.229-2.875-5.217c1.402-3.697,3.843-6.827,5.479-10.397c0.623-1.355,0.48-2.287-0.54-3.25
							c-0.607-0.569-1.188-1.181-1.716-1.823c-3.202-3.904-3.37-5.91-0.839-10.307c0.598-1.038,0.972-2.101,0.821-3.302
							c-0.775-6.184,0.433-12.185,1.881-18.113c0.72-2.942,2.477-5.538,4.555-7.741c1.375-1.459,2.181-3.121,1.688-4.861
							c-1.485-5.241,0.356-9.73,2.651-14.199c0.94-1.83,1.813-3.694,2.75-5.526c2.083-4.078,2.526-8.264,1.202-12.699
							c-2.681-8.981-3.048-18.104-1.121-27.272c1.627-7.744,2.636-15.58,3.833-23.392c0.787-5.134,2.324-10.125,2.618-15.372
							c0.22-3.926,0.024-7.846,0.285-11.764c0.405-6.08,2.537-11.813,3.413-17.779c1.082-7.366,2.4-14.723,2.507-22.201
							c0.093-6.578,0.777-13.074,2.224-19.516c0.985-4.384,0.917-8.943,1.964-13.346c0.925-3.889,2.03-7.709,3.594-11.389
							c0.76-1.789,1.079-3.692,1.579-5.553c2.717-10.084,5.963-19.943,12.139-28.567c6.104-8.523,13.99-14.863,23.601-18.938
							c3.72-1.574,7.027-3.708,10.333-5.934c5.855-3.938,12.408-6.478,18.831-9.271c1.055-0.461,2.09-0.998,3.061-1.615
							c1.308-0.829,1.97-1.873,1.872-3.65c-0.28-5.035,4.047-9.433,9.653-9.838c1.99-0.144,3.245-1.033,4.596-2.362
							c3.866-3.802,6.686-8.467,10.548-12.283c4.341-4.29,9.808-5.957,15.424-7.405c1.98-0.51,4.062-0.579,5.955-1.5
							c0.908-0.442,1.438-1.08,1.563-2.03c0.685-5.173,3.447-9.291,7.065-12.729c2.599-2.469,4.57-5.515,7.483-7.671
							c2.424-1.794,4.571-3.953,7.183-5.507c0.947-0.563,1.927-1.031,3.051-1.102c0.92,3.5,0.889,7.097,1.081,10.671
							c-0.353,0.367-0.786,0.685-1.045,1.108c-3.712,6.058-6.274,12.487-6.623,19.699c-0.276,5.722,0.05,11.444-0.101,17.155
							c-0.218,8.261,1.146,16.12,4.621,23.61c1.46,3.148,3.123,6.218,4.375,9.442c3.797,9.784,9.462,18.521,15.034,27.313
							c3.162,4.99,6.71,9.746,9.687,14.84c4.283,7.331,9.675,13.685,16.425,18.703c8.126,6.044,15.838,6.43,23.598,0.008
							c2.771-2.293,5.492-4.646,8.338-6.85c2.153-1.668,4.01-3.606,5.766-5.66c3.553-4.155,6.603-8.689,9.605-13.237
							c2.868-4.344,6.315-8.271,8.888-12.833c5.556-9.853,11.263-19.62,16.798-29.48c6.396-11.395,12.576-22.821,14.332-36.141
							c1.049-7.962,1.353-15.727-1.108-23.446c0.688-5.706-0.607-10.947-3.655-15.791c-0.854-1.351-1.985-2.246-3.481-2.877
							c-1.893-0.799-3.887-0.755-5.834-1.093C348.851,331.469,347.912,327.878,347.73,324.157z"/>
					</defs>
					<clipPath id="SVGID_8_">
						<use xlink:href="#SVGID_7_"  overflow="visible"/>
					</clipPath>
					<g id="collor" clip-path="url(#SVGID_8_)">
						<path fill="#848484" d="M299.984,482.496c0,0,125.621-89.172,89.315-124.167c-36.303-34.995-33.438-50.995-33.438-50.995
							l-34.531,47.514"/>
						<path fill="#848484" d="M287.352,487.119c0,0-156.844-71.484-80.765-118.135l-2.218-23.078l36.157-24.802"/>
					</g>
				</g>
			</g>
		</g>
	</g>
	<g id="head">
		<path id="face" fill="#785548" d="M227.023,310.598c-3.789-8.138-10.157-14.829-13.138-23.418c-0.312-0.9-0.859-0.943-1.654-0.682
			c-1.214,0.397-2.391,0.883-3.686,1.066c-4.067,0.576-6.936-1.278-9.166-4.408c-2.345-3.291-4.572-6.639-5.869-10.543
			c-0.886-2.668-3.122-4.648-3.85-7.49c-1.55-6.054-2.446-12.196-2.921-18.405c-0.258-3.369,1.744-5.601,5.135-5.97
			c0.439-0.048,0.912,0.042,1.237-0.373c4.49,2.369,7.153,6.272,9.084,10.796c0.86,2.017,1.749,4.021,2.624,6.031
			c-0.581-3.247-1.684-6.309-2.466-9.452c-0.991-3.985-2.724-7.762-3.305-11.85c-0.865-6.078-2.189-12.071-2.513-18.252
			c-0.252-4.81-0.544-9.56,0.39-14.306c0.228-1.156,0.24-2.31,0.076-3.451c-0.609-4.235-0.36-8.45,0.278-12.647
			c0.81-5.33,3.034-10.174,5.234-15.035c5.649-12.485,14.767-20.87,28.146-24.544c5.884-1.616,11.887-0.646,17.793-1.417
			c4.5-0.587,9.072-0.586,13.489-1.861c6.354-1.833,12.958-2.115,19.263-0.662c13.467,3.104,25.436,8.899,32.749,21.568
			c2.041,3.536,5.228,6.147,7.739,9.308c4.154,5.231,6.294,11.44,8.552,17.588c4.23,11.525,5.468,23.676,7.43,35.677
			c0.168,1.025,0.016,2.2,1.104,3.565c0-1.218-0.021-1.909,0.003-2.599c0.089-2.743-0.531-5.482-0.008-8.229
			c0.431-2.262,1.547-4.381,1.51-6.733c-0.04-2.495,0.604-4.808,1.615-7.05c0.572-0.024,0.875-0.499,1.283-0.788
			c2.95-2.077,6.293-0.909,8.022,2.262c3.896,7.151,4.558,14.863,4.555,22.752c-0.002,4.683,0.229,9.375,0.008,14.047
			c-0.313,6.614-3.528,10.461-9.901,12.007c-1.987,0.482-2.364,1.282-2.267,3.249c0.354,6.89-0.167,13.74-1.896,20.452
			c-0.735,2.848-1.646,5.665-0.854,8.657c-0.642-0.012-0.354-0.96-1.08-0.997c-0.133,0.318-0.306,0.649-0.412,1
			c-1.777,5.809-4.896,10.881-9.111,15.155c-3.639,3.685-7.922,6.67-12.161,9.646c-7.469,5.244-15.703,8.825-24.549,11.048
			c-7.527,1.892-15.108,3.394-22.916,3.099c-4.019-0.151-7.984-0.853-11.96-1.473c-5.214-0.813-10.28-2.016-15.097-4.223
			c-6.107-2.799-10.71-7.434-15.087-12.325C227.638,309.455,227.362,309.501,227.023,310.598z"/>
		<g>
			<defs>
				<path id="neck" d="M227.023,310.598c0.339-1.096,0.614-1.143,1.449-0.21c4.376,4.892,8.979,9.526,15.087,12.325
					c4.816,2.207,9.882,3.41,15.097,4.223c3.976,0.62,7.941,1.321,11.96,1.473c7.808,0.295,15.389-1.208,22.916-3.099
					c8.846-2.223,17.081-5.804,24.549-11.048c4.239-2.976,8.524-5.961,12.161-9.646c4.218-4.274,7.334-9.346,9.113-15.155
					c0.104-0.351,0.277-0.682,0.41-1c0.729,0.037,0.438,0.985,1.08,0.997c0.244,0.354,0.307,0.743,0.225,1.158
					c-0.023,0.962,0.517,2.678,0.425,3.462c0.052,1.5,0.448,2.819,0.386,3.474c0.197,0.933,0.271,1.306,0.328,1.563
					c0.119,0.512,0.313,1.291,0.383,1.546c0.146,0.903,0.352,1.669,0.399,1.926c0.193,1.352,0.504,2.295,0.394,2.7
					c0.162,1.277,1.354,6.691,1.938,9.262c0.134,1.188,0.831,3.862,1.168,5.401c0.216,0.833,0.313,1.293,0.375,1.547
					c0.229,0.88,0.635,2.036,0.866,2.662c0.184,3.722,1.119,7.312,1.896,10.929c0.428,2.232,0.739,4.499,1.903,6.518
					c0.134,0.117,0.267,0.234,0.396,0.352l-0.043-0.02c-0.248,0.602,0.041,1.136,0.247,1.66c1.461,3.704,2.583,7.525,4.065,11.227
					c1.854,4.63,3.177,9.572,2.503,14.495c-1.451,10.603-5.528,20.364-11.757,29.024c-8.856,12.313-21.478,19.863-35.188,25.381
					c-13.372,5.38-27.499,5.663-41.601,3.397c-11.27-1.813-20.773-7.065-27.774-16.25c-8.351-10.953-10.901-23.576-9.539-36.987
					c0.788-7.755,1.143-15.493,1.169-23.268c-0.192-3.574-0.161-7.17-1.081-10.671c0.026-0.621,0.053-1.242,0.079-1.864
					c-0.075-1.065-0.31-2.596-0.564-3.878c-0.071-0.379-0.142-0.758-0.213-1.138c-0.079-0.456-0.267-1.674-0.584-2.72
					c-0.002-0.01-0.006-0.031-0.011-0.061c-0.132-0.743-1.208-7.388-1.335-8.026c-0.098-1.456-2.018-8.46-2.971-10.82
					C227.23,311.158,227.127,310.878,227.023,310.598z"/>
			</defs>
			<use xlink:href="#neck"  overflow="visible" fill="#5D4037"/>
			<clipPath id="neck_1_">
				<use xlink:href="#neck"  overflow="visible"/>
			</clipPath>

				<linearGradient id="SVGID_9_" gradientUnits="userSpaceOnUse" x1="335.1914" y1="282.5889" x2="338.5113" y2="397.8887" gradientTransform="matrix(0.7211 -0.6928 0.9985 1.0392 -258.0745 209.2888)">
				<stop  offset="0" style="stop-color:#000000;stop-opacity:0.2"/>
				<stop  offset="0.8" style="stop-color:#000000;stop-opacity:0"/>
			</linearGradient>
			<polygon clip-path="url(#neck_1_)" fill="url(#SVGID_9_)" points="420.982,348.898 340.102,426.611 228.106,310.051
				308.988,232.338 			"/>
		</g>
		<path id="hsir" fill="#222222" d="M341.898,206.82c-1.012,2.242-1.655,4.555-1.615,7.05c0.037,2.353-1.079,4.471-1.51,6.733
			c-0.523,2.747,0.097,5.486,0.008,8.229c-0.022,0.69-0.003,1.381-0.003,2.599c-1.089-1.365-0.938-2.54-1.104-3.565
			c-1.962-12.001-3.196-24.152-7.43-35.677c-2.258-6.148-4.396-12.356-8.552-17.588c-2.515-3.161-5.698-5.772-7.739-9.308
			c-7.313-12.669-19.281-18.464-32.749-21.568c-6.306-1.453-12.909-1.171-19.263,0.662c-4.417,1.274-8.988,1.273-13.489,1.861
			c-5.907,0.771-11.909-0.199-17.793,1.417c-13.38,3.674-22.498,12.059-28.146,24.544c-2.2,4.861-4.424,9.705-5.234,15.035
			c-0.638,4.198-0.887,8.413-0.278,12.647c0.165,1.141,0.152,2.295-0.076,3.451c-0.935,4.747-0.642,9.497-0.39,14.306
			c0.323,6.181,1.648,12.174,2.513,18.252c0.582,4.088,2.314,7.865,3.305,11.85c0.782,3.143,1.885,6.205,2.466,9.452
			c-0.875-2.01-1.764-4.015-2.624-6.031c-1.931-4.524-4.594-8.428-9.084-10.796c-1.447-1.48-2.667-3.153-3.693-4.928
			c-3.187-5.513-6.788-10.753-10.309-16.047c-1.285-1.932-2.321-4-3.244-6.128c-1.125-2.592-2.332-5.123-3.876-7.523
			c-3.483-5.411-3.103-12.155,0.748-17.375c1.564-2.121,1.636-3.618-0.157-5.496c-4.643-4.861-5.478-10.554-3.976-16.832
			c0.48-2.009,1.159-3.949,2.087-5.794c2.107-4.193,4.232-8.375,6.354-12.561c0.204-0.401,0.381-0.829,0.656-1.178
			c2.939-3.736,4.875-7.739,5.269-12.679c0.296-3.707,2.974-6.481,6.164-8.461c2.429-1.507,4.501-3.302,6.267-5.604
			c3.011-3.925,7.395-6.142,11.663-8.368c3.466-1.808,6.922-3.705,10.729-4.783c0.888-0.251,1.577-0.833,2.258-1.435
			c4.644-4.101,10.05-6.386,16.244-6.772c2.43-0.151,4.66-1.031,6.721-2.192c2.647-1.491,5.368-2.14,8.33-1.479
			c1.481,0.33,2.638-0.309,3.81-0.973c5.701-3.232,9.678-2.864,14.589,1.374c2.511,2.167,5.335,2.412,8.172,0.709
			c3.361-2.018,6.646-1.574,9.402,1.33c1.249,1.315,2.816,2.308,4.513,2.348c4.488,0.104,6.964,3.02,9.143,6.235
			c1.194,1.762,2.575,3.173,4.317,4.297c1.571,1.015,3.074,2.121,4.4,3.438c1.964,1.951,3.998,3.737,6.522,5.012
			c2.337,1.179,4.001,3.218,5.146,5.59c1.119,2.318,2.746,4.158,4.831,5.644c3.146,2.243,5.269,5.253,6.347,8.955
			c0.354,1.22,0.936,2.196,1.847,3.078c3.348,3.236,4.946,7.222,5.248,11.867c0.231,3.574,0.568,7.163,1.847,10.581
			c0.895,2.39,1.104,4.891,0.796,7.414c-0.147,1.199,0.081,2.231,0.597,3.331c2.527,5.384,2.212,11.125,1.952,16.848
			c-0.009,0.191-0.084,0.381-0.086,0.571C344.688,197.374,344.396,202.314,341.898,206.82z"/>
		<path id="shadow" fill="#242526" d="M362.602,354.848c-0.224-0.303-0.564-0.576-0.648-0.914
			c-1.082-4.322-4.227-7.198-7.154-10.211c-0.801-0.823-1.769-1.471-2.909-1.787l0.043,0.02c-0.133-0.117-0.266-0.234-0.396-0.352
			c-1.164-2.019-1.479-4.286-1.903-6.518c1.948,0.339,3.942,0.295,5.835,1.094c1.496,0.631,2.631,1.526,3.481,2.877
			C361.991,343.9,363.29,349.142,362.602,354.848z"/>
	</g>
</g>
</svg>
