<svg xmlns="http://www.w3.org/2000/svg" xmlns:xlink="http://www.w3.org/1999/xlink" viewBox="-365 -110.028 510.122 673.799"><defs><style>.a{fill:#222;stroke:#222;}.a,.d{stroke-width:0.5px;}.b{fill:#242526;}.c{fill:#5d4037;}.d{fill:#785548;stroke:#785548;}.e{fill:#673ab7;}.f{clip-path:url(#c);}.g{fill:#e91e63;}.h{fill:#fff;}.i{filter:url(#l);}.j{filter:url(#j);}.k{filter:url(#f);}.l{filter:url(#d);}.m{filter:url(#a);}</style><filter id="a" x="-238.817" y="-65.083" width="187.642" height="204.159" filterUnits="userSpaceOnUse"><feOffset dy="3" input="SourceAlpha"/><feGaussianBlur stdDeviation="3" result="b"/><feFlood flood-opacity="0.302"/><feComposite operator="in" in2="b"/><feComposite in="SourceGraphic"/></filter><clipPath id="c"><path d="M347.73,324.157a45.929,45.929,0,0,1,11.743,3.589c4.5,2.144,7.646,6.007,9.729,10.591a25.263,25.263,0,0,1,2.017,6.023,5.476,5.476,0,0,0,2.775,3.9c5.174,3.242,10.238,6.66,15.306,10.069,2.21,1.486,4.392,2.335,7.2,1.728,3.771-.814,7.113.541,9.914,3.109a13.294,13.294,0,0,0,3.132,2.2,13.5,13.5,0,0,1,6.043,6.016c2.66,5,7.046,8.044,12.087,10.257,2.6,1.14,4.718,2.588,5.028,5.742a4.914,4.914,0,0,0,2.376,3.582,40.822,40.822,0,0,0,8.6,4.735c4.6,1.715,8.6,4.575,13.057,6.6,14,6.358,26.96,14.679,40.46,21.981,9.691,5.241,16.056,13.654,19.854,23.993a189.45,189.45,0,0,0,9.324,20.526c3.98,7.8,7.754,15.622,9.927,24.188.97,3.818,3.311,7.285,4.345,11.1,2.122,7.8,5.353,15.276,6.563,23.354.646,4.306,2.488,8.36,3.206,12.7a52.629,52.629,0,0,1-1.443,23.078c-1.786,6.418-3.271,12.972-1.763,19.767a38.885,38.885,0,0,0,3.542,9.146,56.181,56.181,0,0,1,4.983,37.311,13.293,13.293,0,0,0-.041,4.4c.733,5.393.111,10.792-.014,16.188a22.388,22.388,0,0,0,.31,4.791,47.149,47.149,0,0,1,.262,11.524c-.314,5.56-.457,11.13,2.138,16.414,1.87,3.809,1.309,7.764.2,11.841-1.533,5.646-4.1,10.938-5.374,16.646a16.039,16.039,0,0,0,.22,7.254c2.357,10.07,4.437,20.2,5.852,30.458.575,4.191,1.854,8.267,2.048,12.544.175,3.9.3,3.9-3.48,3.9H54.521c-2.839,0-2.859,0-2.388-2.857a23.767,23.767,0,0,1,.976-4.908c2.653-6.688,1.518-13.874,2.913-20.713.252-1.237-.489-1.392-1.4-1.531-3.14-.494-4.007-2.229-2.875-5.217,1.4-3.7,3.843-6.827,5.479-10.4a2.462,2.462,0,0,0-.54-3.25,19.445,19.445,0,0,1-1.716-1.823c-3.2-3.9-3.37-5.91-.839-10.307a5.18,5.18,0,0,0,.821-3.3c-.775-6.184.433-12.185,1.881-18.113a17.692,17.692,0,0,1,4.555-7.741c1.375-1.459,2.181-3.121,1.688-4.861-1.485-5.241.356-9.73,2.651-14.2.94-1.83,1.813-3.694,2.75-5.526a16.475,16.475,0,0,0,1.2-12.7,54.714,54.714,0,0,1-1.121-27.272c1.627-7.744,2.636-15.58,3.833-23.392.787-5.134,2.324-10.125,2.618-15.372.22-3.926.024-7.846.285-11.764.4-6.08,2.537-11.813,3.413-17.779,1.082-7.366,2.4-14.723,2.507-22.2a94.771,94.771,0,0,1,2.224-19.516c.985-4.384.917-8.943,1.964-13.346A70.844,70.844,0,0,1,89,475.91a41.23,41.23,0,0,0,1.579-5.553c2.717-10.084,5.963-19.943,12.139-28.567a54.949,54.949,0,0,1,23.6-18.938,61.485,61.485,0,0,0,10.333-5.934c5.855-3.938,12.408-6.478,18.831-9.271a22.569,22.569,0,0,0,3.061-1.615,3.643,3.643,0,0,0,1.872-3.65c-.28-5.035,4.047-9.433,9.653-9.838a6.865,6.865,0,0,0,4.6-2.362c3.866-3.8,6.686-8.467,10.548-12.283,4.341-4.29,9.808-5.957,15.424-7.4,1.98-.51,4.062-.579,5.955-1.5a2.525,2.525,0,0,0,1.563-2.03c.685-5.173,3.447-9.291,7.065-12.729,2.6-2.469,4.57-5.515,7.483-7.671,2.424-1.794,4.571-3.953,7.183-5.507a6.807,6.807,0,0,1,3.051-1.1c.92,3.5.889,7.1,1.081,10.671a7.259,7.259,0,0,0-1.045,1.108c-3.712,6.058-6.274,12.487-6.623,19.7-.276,5.722.05,11.444-.1,17.155a51.85,51.85,0,0,0,4.621,23.61c1.46,3.148,3.123,6.218,4.375,9.442,3.8,9.784,9.462,18.521,15.034,27.313,3.162,4.99,6.71,9.746,9.687,14.84a61.737,61.737,0,0,0,16.425,18.7c8.126,6.044,15.838,6.43,23.6.008,2.771-2.293,5.492-4.646,8.338-6.85a39.411,39.411,0,0,0,5.766-5.66,131.867,131.867,0,0,0,9.605-13.237c2.868-4.344,6.315-8.271,8.888-12.833,5.556-9.853,11.263-19.62,16.8-29.48,6.4-11.395,12.576-22.821,14.332-36.141,1.049-7.962,1.353-15.727-1.108-23.446a23.559,23.559,0,0,0-3.655-15.791,7.233,7.233,0,0,0-3.481-2.877c-1.893-.8-3.887-.755-5.834-1.093A67.163,67.163,0,0,1,347.73,324.157Z"/></clipPath><filter id="d" x="-139.1" y="96.635" width="190.644" height="208.565" filterUnits="userSpaceOnUse"><feOffset dy="4" input="SourceAlpha"/><feGaussianBlur stdDeviation="4" result="e"/><feFlood flood-opacity="0.302"/><feComposite operator="in" in2="e"/><feComposite in="SourceGraphic"/></filter><filter id="f" x="-272.277" y="119.885" width="150.171" height="180.342" filterUnits="userSpaceOnUse"><feOffset dy="4" input="SourceAlpha"/><feGaussianBlur stdDeviation="4" result="g"/><feFlood flood-opacity="0.302"/><feComposite operator="in" in2="g"/><feComposite in="SourceGraphic"/></filter><filter id="j" x="-217.995" y="238.832" width="36.968" height="103.237" filterUnits="userSpaceOnUse"><feOffset dx="3" dy="4" input="SourceAlpha"/><feGaussianBlur stdDeviation="2" result="k"/><feFlood flood-opacity="0.302"/><feComposite operator="in" in2="k"/><feComposite in="SourceGraphic"/></filter><filter id="l" x="-75.277" y="248.094" width="26.334" height="127.967" filterUnits="userSpaceOnUse"><feOffset dx="3" dy="4" input="SourceAlpha"/><feGaussianBlur stdDeviation="2" result="m"/><feFlood flood-opacity="0.302"/><feComposite operator="in" in2="m"/><feComposite in="SourceGraphic"/></filter></defs><g transform="translate(-887 -242)"><g transform="translate(470.723 40.385)"><path class="a" d="M341.9,206.82a16.319,16.319,0,0,0-1.615,7.05c.037,2.353-1.079,4.471-1.51,6.733-.523,2.747.1,5.486.008,8.229-.022.69,0,1.381,0,2.6-1.089-1.365-.938-2.54-1.1-3.565-1.962-12-3.2-24.152-7.43-35.677-2.258-6.148-4.4-12.356-8.552-17.588-2.515-3.161-5.7-5.772-7.739-9.308-7.313-12.669-19.281-18.464-32.749-21.568a38.34,38.34,0,0,0-19.263.662c-4.417,1.274-8.988,1.273-13.489,1.861-5.907.771-11.909-.2-17.793,1.417-13.38,3.674-22.5,12.059-28.146,24.544-2.2,4.861-4.424,9.705-5.234,15.035A42.993,42.993,0,0,0,197,199.891a10.191,10.191,0,0,1-.076,3.451c-.935,4.747-.642,9.5-.39,14.306.323,6.181,1.648,12.174,2.513,18.252.582,4.088,2.314,7.865,3.3,11.85.782,3.143,1.885,6.205,2.466,9.452-.875-2.01-1.764-4.015-2.624-6.031-1.931-4.524-4.594-8.428-9.084-10.8a24.7,24.7,0,0,1-3.693-4.928c-3.187-5.513-6.788-10.753-10.309-16.047a39.008,39.008,0,0,1-3.244-6.128,51.937,51.937,0,0,0-3.876-7.523,15.119,15.119,0,0,1,.748-17.375c1.564-2.121,1.636-3.618-.157-5.5-4.643-4.861-5.478-10.554-3.976-16.832a26.588,26.588,0,0,1,2.087-5.794q3.16-6.289,6.354-12.561a6.954,6.954,0,0,1,.656-1.178,22.872,22.872,0,0,0,5.269-12.679c.3-3.707,2.974-6.481,6.164-8.461a22.967,22.967,0,0,0,6.267-5.6c3.011-3.925,7.4-6.142,11.663-8.368a57.247,57.247,0,0,1,10.729-4.783,5.935,5.935,0,0,0,2.258-1.435A26.4,26.4,0,0,1,236.3,98.411a15.7,15.7,0,0,0,6.721-2.192,11.382,11.382,0,0,1,8.33-1.479,5.153,5.153,0,0,0,3.81-.973c5.7-3.232,9.678-2.864,14.589,1.374a6.5,6.5,0,0,0,8.172.709c3.361-2.018,6.646-1.574,9.4,1.33a6.694,6.694,0,0,0,4.513,2.348c4.488.1,6.964,3.02,9.143,6.235a14.9,14.9,0,0,0,4.317,4.3,26.8,26.8,0,0,1,4.4,3.438,25.872,25.872,0,0,0,6.522,5.012,11.736,11.736,0,0,1,5.146,5.59,14.67,14.67,0,0,0,4.831,5.644,16.342,16.342,0,0,1,6.347,8.955,6.715,6.715,0,0,0,1.847,3.078,17.354,17.354,0,0,1,5.248,11.867,36.5,36.5,0,0,0,1.847,10.581,15.54,15.54,0,0,1,.8,7.414,5.822,5.822,0,0,0,.6,3.331c2.527,5.384,2.212,11.125,1.952,16.848-.009.191-.084.381-.086.571C344.688,197.374,344.4,202.314,341.9,206.82Z"/><path class="b" d="M362.6,354.848c-.224-.3-.564-.576-.648-.914-1.082-4.322-4.227-7.2-7.154-10.211a6.489,6.489,0,0,0-2.909-1.787l.043.02c-.133-.117-.266-.234-.4-.352a20.1,20.1,0,0,1-1.9-6.518c1.948.339,3.942.3,5.835,1.094a7.214,7.214,0,0,1,3.481,2.877A23.6,23.6,0,0,1,362.6,354.848Z"/><path class="c" d="M225.677,308.415c2.6,1.4,11.774,11.5,17.882,14.3a56.768,56.768,0,0,0,15.1,4.223,103.127,103.127,0,0,0,11.96,1.473c7.808.3,15.389-1.208,22.916-3.1a73.376,73.376,0,0,0,24.549-11.048,86.572,86.572,0,0,0,12.161-9.646,35.193,35.193,0,0,0,9.135-14.7c.2-.5,1-2,1.4-3a31.171,31.171,0,0,1,.5,4,21.164,21.164,0,0,1,.218,3.163c.052,1.5.448,2.819.386,3.474.2.933.271,1.306.328,1.563.119.512.313,1.291.383,1.546.146.9.352,1.669.4,1.926a14.149,14.149,0,0,1,.394,2.7c.162,1.277,1.354,6.691,1.938,9.262.134,1.188.831,3.862,1.168,5.4.216.833.313,1.293.375,1.547.229.88.635,2.036.866,2.662a68.213,68.213,0,0,0,1.9,10.929,20.2,20.2,0,0,0,1.9,6.518c.134.117.267.234.4.352l-.043-.02a2.125,2.125,0,0,0,.247,1.66c1.461,3.7,2.583,7.525,4.065,11.227,1.854,4.63,3.177,9.572,2.5,14.495a64.34,64.34,0,0,1-11.757,29.024c-8.856,12.313-21.478,19.863-35.188,25.381-13.372,5.38-27.5,5.663-41.6,3.4-11.27-1.813-20.773-7.065-27.774-16.25-8.351-10.953-10.9-23.576-9.539-36.987.788-7.755,1.143-15.493,1.169-23.268-.192-3.574-.161-7.17-1.081-10.671q.039-.932.079-1.864a35.036,35.036,0,0,0-.564-3.878l-.213-1.138a23.045,23.045,0,0,0-.584-2.72c0-.01-.006-.031-.011-.061-.132-.743-1.208-7.388-1.335-8.026a76.52,76.52,0,0,0-3.223-10.944C226.978,311.034,225.677,308.415,225.677,308.415Z"/><g class="m" transform="matrix(1, 0, 0, 1, 416.28, 201.61)"><path class="d" d="M226.977,310.515c-3.789-8.138-10.111-14.746-13.092-23.335-.312-.9-.859-.943-1.654-.682a21.561,21.561,0,0,1-3.686,1.066c-4.067.576-6.936-1.278-9.166-4.408a40.211,40.211,0,0,1-5.869-10.543c-.886-2.668-3.122-4.648-3.85-7.49a106.8,106.8,0,0,1-2.921-18.4c-.258-3.369,1.744-5.6,5.135-5.97.439-.048.912.042,1.237-.373,4.49,2.369,7.153,6.272,9.084,10.8.86,2.017,1.749,4.021,2.624,6.031-.581-3.247-1.684-6.309-2.466-9.452-.991-3.985-2.724-7.762-3.3-11.85-.865-6.078-2.189-12.071-2.513-18.252-.252-4.81-.544-9.56.39-14.306a10.216,10.216,0,0,0,.076-3.451,42.992,42.992,0,0,1,.278-12.647c.81-5.33,3.034-10.174,5.234-15.035,5.649-12.485,14.767-20.87,28.146-24.544,5.884-1.616,11.887-.646,17.793-1.417,4.5-.587,9.072-.586,13.489-1.861a38.341,38.341,0,0,1,19.263-.662c13.467,3.1,25.436,8.9,32.749,21.568,2.041,3.536,5.228,6.147,7.739,9.308,4.154,5.231,6.294,11.44,8.552,17.588,4.23,11.525,5.468,23.676,7.43,35.677.168,1.025.016,2.2,1.1,3.565,0-1.218-.021-1.909,0-2.6.089-2.743-.531-5.482-.008-8.229.431-2.262,1.547-4.381,1.51-6.733a16.334,16.334,0,0,1,1.615-7.05c.572-.024.875-.5,1.283-.788,2.95-2.077,6.293-.909,8.022,2.262,3.9,7.151,4.558,14.863,4.555,22.752,0,4.683.229,9.375.008,14.047-.313,6.614-3.528,10.461-9.9,12.007-1.987.482-2.364,1.282-2.267,3.249a67.66,67.66,0,0,1-1.9,20.452c-.735,2.848-.925,5.414-1.225,6.314-.2.7-.6,1.2-1,2.3a40.022,40.022,0,0,1-9.232,15.2,86.684,86.684,0,0,1-12.161,9.646,73.385,73.385,0,0,1-24.549,11.048c-7.527,1.892-15.108,3.394-22.916,3.1a102.914,102.914,0,0,1-11.96-1.473,56.789,56.789,0,0,1-15.1-4.223,49.033,49.033,0,0,1-16.185-11.5C226.777,310.215,227.012,310.4,226.977,310.515Z" transform="translate(-416.28 -201.61)"/></g></g><g transform="translate(470.723 40.385)"><path class="e" d="M347.73,324.157a45.929,45.929,0,0,1,11.743,3.589c4.5,2.144,7.646,6.007,9.729,10.591a25.263,25.263,0,0,1,2.017,6.023,5.476,5.476,0,0,0,2.775,3.9c5.174,3.242,10.238,6.66,15.306,10.069,2.21,1.486,4.392,2.335,7.2,1.728,3.771-.814,7.113.541,9.914,3.109a13.294,13.294,0,0,0,3.132,2.2,13.5,13.5,0,0,1,6.043,6.016c2.66,5,7.046,8.044,12.087,10.257,2.6,1.14,4.718,2.588,5.028,5.742a4.914,4.914,0,0,0,2.376,3.582,40.822,40.822,0,0,0,8.6,4.735c4.6,1.715,8.6,4.575,13.057,6.6,14,6.358,26.96,14.679,40.46,21.981,9.691,5.241,16.056,13.654,19.854,23.993a189.45,189.45,0,0,0,9.324,20.526c3.98,7.8,7.754,15.622,9.927,24.188.97,3.818,3.311,7.285,4.345,11.1,2.122,7.8,5.353,15.276,6.563,23.354.646,4.306,2.488,8.36,3.206,12.7a52.629,52.629,0,0,1-1.443,23.078c-1.786,6.418-3.271,12.972-1.763,19.767a38.885,38.885,0,0,0,3.542,9.146,56.181,56.181,0,0,1,4.983,37.311,13.293,13.293,0,0,0-.041,4.4c.733,5.393.111,10.792-.014,16.188a22.388,22.388,0,0,0,.31,4.791,47.149,47.149,0,0,1,.262,11.524c-.314,5.56-.457,11.13,2.138,16.414,1.87,3.809,1.309,7.764.2,11.841-1.533,5.646-4.1,10.938-5.374,16.646a16.039,16.039,0,0,0,.22,7.254c2.357,10.07,4.437,20.2,5.852,30.458.575,4.191,1.854,8.267,2.048,12.544.175,3.9.3,3.9-3.48,3.9H54.521c-2.839,0-2.859,0-2.388-2.857a23.767,23.767,0,0,1,.976-4.908c2.653-6.688,1.518-13.874,2.913-20.713.252-1.237-.489-1.392-1.4-1.531-3.14-.494-4.007-2.229-2.875-5.217,1.4-3.7,3.843-6.827,5.479-10.4a2.462,2.462,0,0,0-.54-3.25,19.445,19.445,0,0,1-1.716-1.823c-3.2-3.9-3.37-5.91-.839-10.307a5.18,5.18,0,0,0,.821-3.3c-.775-6.184.433-12.185,1.881-18.113a17.692,17.692,0,0,1,4.555-7.741c1.375-1.459,2.181-3.121,1.688-4.861-1.485-5.241.356-9.73,2.651-14.2.94-1.83,1.813-3.694,2.75-5.526a16.475,16.475,0,0,0,1.2-12.7,54.714,54.714,0,0,1-1.121-27.272c1.627-7.744,2.636-15.58,3.833-23.392.787-5.134,2.324-10.125,2.618-15.372.22-3.926.024-7.846.285-11.764.4-6.08,2.537-11.813,3.413-17.779,1.082-7.366,2.4-14.723,2.507-22.2a94.771,94.771,0,0,1,2.224-19.516c.985-4.384.917-8.943,1.964-13.346A70.844,70.844,0,0,1,89,475.91a41.23,41.23,0,0,0,1.579-5.553c2.717-10.084,5.963-19.943,12.139-28.567a54.949,54.949,0,0,1,23.6-18.938,61.485,61.485,0,0,0,10.333-5.934c5.855-3.938,12.408-6.478,18.831-9.271a22.569,22.569,0,0,0,3.061-1.615,3.643,3.643,0,0,0,1.872-3.65c-.28-5.035,4.047-9.433,9.653-9.838a6.865,6.865,0,0,0,4.6-2.362c3.866-3.8,6.686-8.467,10.548-12.283,4.341-4.29,9.808-5.957,15.424-7.4,1.98-.51,4.062-.579,5.955-1.5a2.525,2.525,0,0,0,1.563-2.03c.685-5.173,3.447-9.291,7.065-12.729,2.6-2.469,4.57-5.515,7.483-7.671,2.424-1.794,4.571-3.953,7.183-5.507a6.807,6.807,0,0,1,3.051-1.1c.92,3.5.889,7.1,1.081,10.671a7.259,7.259,0,0,0-1.045,1.108c-3.712,6.058-6.274,12.487-6.623,19.7-.276,5.722.05,11.444-.1,17.155a51.85,51.85,0,0,0,4.621,23.61c1.46,3.148,3.123,6.218,4.375,9.442,3.8,9.784,9.462,18.521,15.034,27.313,3.162,4.99,6.71,9.746,9.687,14.84a61.737,61.737,0,0,0,16.425,18.7c8.126,6.044,15.838,6.43,23.6.008,2.771-2.293,5.492-4.646,8.338-6.85a39.411,39.411,0,0,0,5.766-5.66,131.867,131.867,0,0,0,9.605-13.237c2.868-4.344,6.315-8.271,8.888-12.833,5.556-9.853,11.263-19.62,16.8-29.48,6.4-11.395,12.576-22.821,14.332-36.141,1.049-7.962,1.353-15.727-1.108-23.446a23.559,23.559,0,0,0-3.655-15.791,7.233,7.233,0,0,0-3.481-2.877c-1.893-.8-3.887-.755-5.834-1.093A67.163,67.163,0,0,1,347.73,324.157Z"/></g><g transform="translate(470.723 40.385)"><g class="f"><g class="l" transform="matrix(1, 0, 0, 1, 416.28, 201.61)"><path class="g" d="M289.177,490.815s5.418-.369,16.3-5.9c28.179-14.324,87.025-50.411,127.994-95.491C489.75,327.5,422,349.75,422,349.75l-30-4.783L348.5,306.25" transform="translate(-416.28 -201.61)"/></g><g class="k" transform="matrix(1, 0, 0, 1, 416.28, 201.61)"><path class="g" d="M160.375,403.325S193.75,451.25,258.25,474.25l23.921,11.592L240.75,415.5l-1.5-77-16.25-9-67,59" transform="translate(-416.28 -201.61)"/></g></g></g><g transform="translate(470.723 40.385)"><g class="f"><path class="g" d="M263.583,765.386S276.441,681.5,278.75,571.5c0,0,1.662-40.207,7.171-86.854s8.239-13.738,6.519,2.476-9.108,69.548-7.972,85.548-6.819,142.1-13.071,192.719"/><path class="h" d="M285.479,521.464l8.9-.714-1.893-23.585-8.9.715"/><path class="g" d="M286.686,509.44l4.6-.369-.766-9.561-4.6.369"/><path class="h" d="M286.11,498.477l3.718.485.862-6.61-3.642-1.064"/></g></g><g transform="translate(470.723 40.385)"><g class="f"><g class="j" transform="matrix(1, 0, 0, 1, 416.28, 201.61)"><path class="h" d="M201.282,443.37s7.3-4.676,9.76,7.019,5.833,29.194,6.708,34.194.333,17.751,4.333,33.084,4.167,11.5,4.167,11.5-3.5,9.334-10.833,1.167l.667-11.667s-1.333-9.542-3.833-32.667-5.271-35.081-8.333-40.166" transform="translate(-416.28 -201.61)"/></g><g class="i" transform="matrix(1, 0, 0, 1, 416.28, 201.61)"><path class="h" d="M356.4,452.583S345.333,449,344,456.334c0,0,5.068,21.667,6.2,31s2.466,49.667,1.466,63c0,0-3.354,10.729-3.917,12.854s5.875,8.688,9.75.438V550.75s4.333-34-6.75-94.632" transform="translate(-416.28 -201.61)"/></g></g></g><g transform="translate(470.723 40.385)"><g class="f"><path class="g" d="M299.984,482.5S425.605,393.324,389.3,358.329s-33.438-50.995-33.438-50.995L321.33,354.848"/><path class="g" d="M289.077,490.315s-9.1,1.4-27.2-8.8c-32.1-11.7-111.893-77.822-55.29-112.531l-2.218-23.078,36.157-24.8"/></g></g></g></svg>